<?xml version="1.0" standalone="no"?>
<!DOCTYPE svg PUBLIC "-//W3C//DTD SVG 20010904//EN"
 "http://www.w3.org/TR/2001/REC-SVG-20010904/DTD/svg10.dtd">
<svg version="1.0" xmlns="http://www.w3.org/2000/svg"
 width="1200.000000pt" height="1200.000000pt" viewBox="0 0 1200.000000 1200.000000"
 preserveAspectRatio="xMidYMid meet">

<g transform="translate(0.000000,1200.000000) scale(0.100000,-0.100000)"
fill="#000000" stroke="none">
<path d="M0 6000 l0 -6000 4433 2 4432 3 23 23 c16 16 32 22 48 19 13 -2 24
-1 24 3 0 4 19 10 42 14 32 5 39 9 28 16 -11 7 -11 10 -2 10 7 0 46 16 86 35
53 25 88 35 123 35 44 0 53 4 88 40 21 22 47 40 57 40 10 0 30 7 43 16 25 16
55 13 55 -6 0 -5 -9 -10 -20 -10 -13 0 -20 -7 -20 -19 0 -10 -7 -22 -16 -25
-8 -3 -14 -14 -13 -23 3 -30 -1 -39 -10 -24 -7 11 -12 4 -21 -27 -10 -41 -12
-42 -51 -42 -34 0 -40 -3 -35 -16 7 -18 -32 -54 -51 -47 -6 3 -20 0 -30 -6
-13 -7 397 -10 1385 -11 l1402 0 0 6000 0 6000 -6000 0 -6000 0 0 -6000z
m5854 5898 c10 -17 17 -94 25 -283 25 -583 31 -809 22 -818 -6 -6 -86 -14
-178 -19 -92 -5 -222 -15 -288 -23 -232 -28 -361 -46 -435 -60 -41 -8 -118
-22 -170 -31 -361 -63 -849 -203 -1221 -350 -75 -30 -140 -54 -145 -54 -10 0
-63 48 -191 170 -43 41 -143 134 -223 205 -210 189 -270 247 -270 260 0 13 14
25 110 87 36 24 67 45 70 48 10 11 65 46 157 99 32 19 106 63 165 97 170 100
483 250 698 334 58 22 114 45 125 50 44 19 266 90 359 115 262 69 848 160
1191 184 185 13 183 14 199 -11z m696 -9 c116 -9 262 -25 435 -49 39 -5 95
-12 125 -15 30 -3 87 -12 125 -19 39 -8 104 -19 145 -26 83 -13 353 -77 385
-90 11 -5 40 -14 65 -20 45 -11 140 -45 172 -61 10 -5 23 -9 29 -9 12 0 112
-43 139 -60 16 -10 41 -22 125 -59 77 -35 381 -190 505 -259 25 -14 65 -35 88
-48 24 -13 106 -62 182 -109 105 -66 137 -90 133 -103 -5 -22 -646 -662 -662
-662 -7 0 -61 20 -120 44 -114 47 -370 134 -531 181 -411 120 -1074 230 -1500
250 -69 3 -149 8 -179 11 l-54 6 6 161 c3 89 11 311 17 492 14 421 17 452 38
459 19 5 146 0 332 -15z m-638 -1259 c8 -36 27 -726 20 -746 -2 -7 -59 -13
-155 -18 -336 -15 -580 -39 -932 -92 -190 -28 -556 -103 -678 -139 -60 -17
-93 -22 -105 -16 -9 5 -67 62 -129 128 -61 65 -177 186 -256 268 -101 105
-142 154 -135 162 9 11 154 73 233 99 22 7 72 25 110 39 188 69 404 137 520
165 461 110 778 152 1395 183 104 5 104 5 112 -33z m783 14 c169 -13 438 -46
610 -73 93 -15 358 -76 475 -109 304 -86 690 -226 690 -249 0 -10 -13 -24
-190 -213 -75 -80 -156 -167 -181 -195 -105 -117 -145 -156 -164 -157 -11 0
-56 10 -100 22 -44 12 -98 25 -120 30 -22 4 -83 17 -135 28 -88 19 -223 40
-495 77 -141 19 -393 42 -610 55 -93 5 -212 13 -263 16 l-93 6 6 151 c19 505
25 619 31 628 8 13 254 5 539 -17z m2622 -39 c66 -28 82 -77 38 -120 -56 -57
-215 -8 -215 66 0 60 93 89 177 54z m-6446 -86 c28 -44 -14 -97 -99 -125 -50
-16 -56 -16 -88 -1 -34 17 -52 52 -40 82 3 9 29 27 58 41 42 20 65 24 106 21
32 -2 58 -10 63 -18z m6947 -412 c21 -29 51 -74 66 -101 29 -49 96 -130 103
-123 2 2 -4 20 -12 41 -8 20 -13 47 -9 60 6 24 46 44 52 26 5 -14 39 -12 46 3
5 10 7 10 12 0 9 -19 51 -16 73 6 13 13 23 16 34 9 26 -14 127 -115 127 -126
0 -5 7 -12 15 -16 8 -3 20 -17 25 -31 5 -14 14 -25 20 -25 6 0 4 12 -5 30 -8
16 -15 36 -15 45 0 8 -5 15 -12 15 -9 0 -9 3 1 13 10 10 17 7 35 -15 12 -16
27 -28 34 -28 7 0 12 -7 12 -15 0 -7 8 -19 18 -24 9 -6 13 -11 8 -11 -10 0 32
-39 59 -56 10 -5 20 -19 21 -30 2 -10 12 -26 23 -36 12 -9 21 -20 21 -25 0 -4
14 -17 31 -28 16 -11 51 -51 77 -90 25 -38 49 -72 53 -75 4 -3 8 -14 10 -25 2
-11 14 -24 27 -30 12 -5 22 -15 22 -22 0 -7 4 -13 9 -13 5 0 13 -10 17 -22 4
-13 9 -25 13 -28 3 -3 24 -40 46 -82 22 -43 45 -78 52 -78 7 0 13 -10 13 -22
0 -13 6 -34 13 -48 7 -14 22 -49 32 -78 11 -30 28 -58 37 -63 14 -8 18 -22 18
-66 0 -40 5 -62 18 -76 14 -16 17 -36 15 -110 -1 -49 -6 -93 -12 -96 -7 -4 -3
-19 9 -39 13 -21 18 -41 14 -57 -9 -35 -24 -31 -24 5 0 17 -4 30 -10 30 -5 0
-16 22 -24 50 -8 27 -36 96 -62 152 -76 164 -147 313 -153 318 -3 3 -18 30
-33 60 -38 76 -104 197 -134 245 -13 22 -32 56 -42 75 -9 19 -23 39 -29 43 -7
4 -13 15 -13 22 0 8 -5 15 -11 15 -12 0 -2 -38 16 -60 7 -8 20 -33 29 -55 9
-21 20 -42 24 -45 13 -8 199 -395 225 -466 8 -21 31 -78 51 -126 19 -48 38
-105 42 -127 4 -23 10 -41 15 -41 5 0 9 -9 9 -21 0 -11 5 -29 10 -40 7 -12 7
-19 1 -19 -5 0 -3 -12 5 -27 25 -49 16 -81 -17 -60 -13 8 -19 23 -19 49 0 31
-4 38 -20 38 -17 0 -20 -7 -20 -40 0 -29 4 -40 15 -40 22 0 18 -16 -10 -38
-25 -20 -33 -42 -15 -42 6 0 10 -18 10 -40 0 -33 -3 -40 -20 -40 -17 0 -20 7
-20 40 0 33 -3 40 -20 40 -17 0 -20 -7 -20 -40 0 -22 -4 -40 -10 -40 -5 0 -10
-18 -10 -40 l0 -40 -45 0 c-33 0 -43 -3 -39 -14 3 -8 -4 -16 -18 -20 -51 -13
-55 -10 -73 71 -10 42 -21 84 -25 92 -5 9 -15 45 -24 81 -26 109 -62 229 -105
354 -56 165 -73 179 -32 27 19 -68 30 -147 24 -170 -7 -28 -49 -29 -56 -1 -4
15 -14 20 -41 20 -25 0 -38 6 -46 20 -6 11 -18 20 -28 20 -32 0 -201 -61 -238
-86 -20 -14 -39 -23 -42 -19 -3 3 -15 -1 -26 -8 -12 -8 -33 -16 -48 -19 -23
-4 -28 0 -43 36 -34 82 -45 112 -59 169 -8 33 -18 62 -22 65 -4 4 -4 -6 1 -23
4 -16 13 -57 21 -90 7 -33 23 -98 33 -145 37 -159 99 -600 111 -785 4 -66 9
-127 12 -135 3 -8 3 -12 1 -7 -3 4 -10 7 -17 7 -15 0 -36 87 -40 165 -2 29
-12 65 -24 85 -12 19 -22 38 -22 43 0 4 -4 7 -8 7 -10 0 -42 -65 -42 -84 0
-10 -23 -16 -80 -21 -58 -5 -80 -11 -80 -21 0 -8 -7 -14 -15 -14 -11 0 -15 11
-15 40 0 22 -4 40 -10 40 -6 0 -10 -26 -10 -59 0 -32 -3 -86 -6 -120 l-7 -61
-48 0 -49 0 0 -40 0 -40 -41 0 -41 0 4 105 c1 58 2 101 0 95 -2 -5 -21 -10
-43 -10 -28 0 -39 -4 -39 -15 0 -11 -11 -15 -40 -15 l-40 0 0 48 c0 49 -23
112 -41 112 -5 0 -14 -11 -19 -25 -16 -41 -21 -29 -17 38 3 34 2 45 0 25 -4
-37 -5 -38 -44 -38 l-39 0 0 60 0 60 -40 0 c-40 0 -40 0 -40 -40 0 -30 -3 -38
-14 -34 -21 8 -27 -10 -19 -58 7 -42 7 -42 14 -13 6 27 7 26 8 -13 0 -25 -3
-41 -8 -37 -6 3 -13 -16 -16 -42 -11 -82 -14 -81 -9 1 4 51 2 76 -4 72 -14 -9
-22 20 -15 55 3 17 2 34 -4 38 -5 3 -17 65 -27 136 -42 305 -53 372 -91 540
-38 169 -47 172 -20 9 22 -139 55 -405 54 -439 -1 -17 -9 8 -19 55 -10 47 -24
113 -31 148 -14 64 -25 79 -31 40 -2 -19 -11 -24 -48 -28 -25 -3 -54 -11 -65
-18 l-20 -11 20 -1 c16 -1 13 -4 -10 -14 -21 -9 -26 -14 -16 -20 11 -7 11 -10
0 -17 -22 -14 -29 -11 -29 11 0 24 -9 25 -35 6 -16 -11 -17 -17 -7 -29 10 -12
8 -16 -14 -21 -14 -4 -35 -4 -46 0 -13 4 -24 1 -29 -7 -13 -20 -12 17 1 41 13
24 2 54 -14 41 -21 -18 -36 46 -27 111 4 31 5 57 2 56 -20 -2 -30 4 -25 15 3
8 -2 20 -11 27 -13 11 -15 7 -15 -34 0 -26 5 -57 12 -69 6 -12 13 -49 14 -82
2 -33 6 -75 10 -93 l6 -32 -38 5 c-92 14 -104 12 -111 -15 -8 -30 -8 -85 0
-165 4 -33 -6 3 -23 80 -16 77 -29 154 -29 170 -1 41 -33 89 -49 73 -9 -9 -12
-9 -12 0 0 7 -7 12 -15 12 -16 0 -17 17 -5 65 l8 30 1 -29 c1 -33 15 -27 17 7
1 12 2 27 4 32 5 21 0 65 -9 65 -5 0 -11 -12 -14 -27 -3 -16 -12 -37 -20 -47
-14 -18 -15 -16 -22 32 -4 29 -16 69 -26 90 l-20 37 5 -106 c3 -59 10 -119 16
-134 9 -23 7 -31 -10 -47 -11 -10 -24 -16 -29 -13 -5 3 -17 -2 -26 -12 -14
-13 -21 -14 -36 -5 -16 10 -19 9 -19 -3 0 -11 -11 -15 -40 -15 -22 0 -40 -4
-40 -10 0 -5 18 -10 40 -10 33 0 40 -3 40 -19 0 -30 -40 -34 -305 -37 -306 -2
-330 -6 -299 -48 14 -19 14 -19 15 5 0 22 1 22 8 4 5 -11 7 -23 4 -27 -2 -5 2
-17 11 -29 14 -21 14 -21 30 7 16 30 21 14 7 -21 -8 -19 20 -74 41 -83 4 -2 8
-8 8 -13 0 -5 23 -43 51 -85 29 -42 89 -151 135 -243 105 -210 173 -412 220
-656 52 -271 44 -248 83 -257 18 -5 54 -30 81 -57 97 -97 136 -298 85 -441
-25 -70 -66 -95 -165 -102 -51 -3 -46 5 -81 -133 -11 -44 -23 -87 -26 -95 -7
-18 -9 -29 -11 -54 -2 -15 -5 -16 -17 -6 -12 10 -15 10 -15 -4 0 -9 -5 -16
-11 -16 -6 0 -9 -6 -6 -13 3 -8 -4 -12 -22 -11 -14 1 -32 -3 -38 -9 -9 -6 -13
-6 -13 3 0 8 -8 4 -19 -8 -19 -23 -51 -30 -51 -12 0 6 -4 10 -10 10 -5 0 -10
-7 -10 -16 0 -40 -61 -59 -87 -26 -14 16 -14 16 -9 0 3 -10 1 -18 -4 -18 -6 0
-10 -7 -10 -15 0 -30 -18 -14 -23 21 -7 43 -23 64 -48 64 -25 0 -42 -36 -36
-77 10 -59 -25 -120 -48 -83 -3 6 -14 10 -23 9 -14 0 -13 -3 6 -16 12 -8 21
-25 21 -37 -1 -17 -2 -17 -6 -3 -5 19 -18 22 -28 7 -9 -15 -25 -12 -25 6 0 8
-4 12 -10 9 -14 -9 -13 -45 2 -45 6 0 9 -3 5 -6 -12 -12 -47 8 -47 28 0 14 -5
18 -16 14 -9 -3 -22 -6 -29 -6 -8 0 -21 -8 -31 -17 -13 -14 -33 -16 -103 -14
-85 2 -87 2 -101 -24 -11 -21 -15 -23 -22 -10 -13 21 -35 19 -41 -5 -5 -19
-14 -20 -165 -20 -108 0 -162 4 -164 11 -2 7 -58 13 -158 16 -109 4 -158 9
-165 18 -22 27 -155 48 -155 25 0 -14 -73 -13 -87 1 -8 8 -1 22 28 52 21 23
39 47 39 54 0 6 6 16 13 20 28 18 127 230 127 274 0 10 5 21 10 24 6 3 10 15
10 26 0 10 5 19 10 19 15 0 12 77 -2 83 -10 3 -10 9 0 26 17 29 15 49 -3 25
-14 -19 -14 -18 -15 4 0 12 -5 22 -12 22 -9 0 -9 3 0 12 10 10 15 10 22 -2 5
-8 13 -11 17 -6 4 5 2 11 -4 13 -7 3 -13 14 -14 26 0 12 -3 16 -6 10 -2 -7
-16 -13 -29 -13 l-25 0 24 33 c30 40 97 162 97 175 0 6 -7 12 -16 14 -13 2
-12 7 7 28 13 14 30 38 36 53 7 15 17 27 23 27 6 0 5 10 -2 28 -29 66 -45 71
-248 78 -74 2 -143 5 -152 8 -10 2 -18 0 -18 -5 0 -13 -28 -11 -32 3 -2 6 -9
9 -15 5 -6 -4 -62 -9 -125 -12 -62 -3 -126 -7 -143 -10 -16 -2 -43 -6 -60 -9
-16 -2 -29 -9 -28 -15 2 -6 -4 -11 -12 -11 -9 0 -20 -11 -27 -25 -6 -13 -15
-22 -19 -19 -14 8 -11 0 16 -48 13 -24 33 -71 44 -104 10 -32 29 -78 41 -101
12 -23 19 -47 15 -53 -3 -5 -1 -10 4 -10 6 0 11 -9 11 -21 0 -16 -4 -19 -20
-14 -22 7 -26 -13 -10 -50 9 -20 15 -7 11 23 -1 6 3 12 9 12 5 0 10 -13 10
-30 0 -16 -4 -30 -9 -30 -10 0 -9 -37 0 -55 3 -6 12 -30 19 -55 7 -25 17 -49
20 -55 4 -5 10 -22 14 -37 3 -15 29 -73 56 -130 28 -57 50 -108 50 -114 0 -6
7 -17 15 -24 8 -7 15 -21 15 -31 0 -11 6 -19 13 -19 17 -1 -35 -40 -54 -40 -8
0 -20 5 -27 12 -9 9 -12 9 -12 0 0 -7 -16 -12 -40 -12 -22 0 -40 -5 -40 -10 0
-6 -7 -6 -19 1 -10 7 -26 9 -37 4 -20 -8 -43 -9 -181 -13 -87 -2 -114 -19 -40
-24 23 -2 -67 -3 -200 -3 -134 0 -243 3 -243 8 0 4 -18 7 -40 7 -22 0 -40 5
-40 10 0 6 -15 10 -34 10 -39 0 -122 40 -105 50 7 5 5 9 -5 13 -9 4 -16 2 -16
-3 0 -15 -28 -12 -33 3 -3 10 -9 10 -26 0 -29 -18 -30 -17 -27 21 2 30 0 33
-16 22 -10 -6 -14 -12 -8 -14 5 -2 9 -13 9 -25 -1 -14 -3 -16 -6 -6 -2 8 -16
22 -31 31 -27 16 -29 16 -58 -7 -16 -13 -31 -24 -34 -25 -11 0 -8 55 3 62 7 4
-12 8 -40 8 -40 0 -53 4 -53 15 0 11 -11 15 -40 15 -28 0 -40 4 -40 14 0 10
-22 16 -80 21 l-80 7 -1 47 c-1 29 -3 39 -7 26 -9 -27 -35 -65 -44 -65 -5 0
-8 9 -8 21 0 12 -8 23 -20 26 -19 5 -23 14 -62 158 l-14 50 -67 1 c-38 1 -78
6 -90 12 -12 5 -29 12 -38 15 -9 3 -24 22 -35 44 -16 32 -19 60 -19 183 l0
145 40 68 c31 53 54 78 99 108 32 21 67 39 77 39 11 0 19 6 19 13 0 22 49 352
60 403 5 27 19 83 29 124 11 41 27 104 36 140 10 36 30 93 46 127 16 34 29 67
29 73 0 20 122 254 146 281 8 8 14 19 14 22 0 4 11 24 23 45 27 42 31 72 9 72
-7 0 -12 6 -9 13 2 6 11 11 20 11 9 -1 18 9 22 23 3 15 18 30 40 39 38 16 44
28 19 42 -10 6 -14 14 -9 22 6 9 9 9 16 -1 7 -11 9 -11 9 1 0 21 -16 44 -27
37 -18 -11 -481 -19 -500 -8 -16 9 -15 10 10 11 15 0 27 5 27 10 0 6 26 10 58
10 31 1 68 7 82 15 24 14 22 15 -40 14 -81 -1 -136 9 -151 27 -6 8 -22 14 -34
14 -31 0 -36 19 -21 72 7 23 16 79 19 123 6 72 5 78 -8 61 -8 -11 -15 -26 -15
-33 0 -18 -37 -100 -49 -107 -4 -3 -6 -18 -4 -33 4 -23 2 -25 -7 -13 -9 12
-11 10 -7 -12 2 -16 0 -28 -4 -28 -5 0 -9 7 -9 15 0 8 -4 15 -9 15 -4 0 -13
-28 -19 -62 -7 -35 -25 -133 -41 -218 l-29 -155 5 123 c5 89 3 122 -5 122 -7
0 -12 8 -13 18 0 13 -2 12 -9 -5 -5 -13 -17 -23 -27 -22 -16 0 -16 1 2 9 16 7
11 9 -21 9 l-41 1 -7 65 c-5 46 -2 83 9 126 14 54 14 64 2 76 -13 13 -15 11
-21 -11 -3 -14 -11 -26 -16 -26 -6 0 -10 -31 -10 -71 0 -46 -4 -68 -10 -64
-13 8 -42 -14 -35 -25 3 -4 -2 -13 -10 -20 -7 -6 -11 -18 -8 -27 5 -13 -4 -14
-63 -8 -69 8 -87 13 -134 40 -14 8 -41 15 -61 15 -19 0 -40 5 -47 12 -16 16
-20 10 -31 -52 -5 -30 -14 -71 -19 -90 -10 -33 -10 -34 -11 -7 -1 22 35 291
64 482 3 19 -1 13 -11 -15 -35 -106 -147 -780 -163 -982 -4 -48 -11 -91 -15
-95 -4 -5 -5 19 -1 52 5 43 3 56 -4 45 -6 -8 -11 -24 -12 -35 0 -15 -3 -13
-11 10 -6 16 -7 30 -2 32 13 4 9 172 -5 186 -8 8 -11 7 -11 -6 0 -13 -9 -17
-40 -17 l-40 0 0 -40 0 -40 -55 0 -55 0 0 -40 0 -40 -75 0 -75 0 0 -80 c0 -73
-2 -80 -20 -80 -18 0 -20 7 -20 80 0 47 -4 80 -10 80 -5 0 -10 -9 -10 -20 0
-17 -7 -20 -40 -20 -33 0 -40 -3 -40 -20 0 -12 -7 -20 -16 -20 -14 0 -16 -9
-12 -50 4 -41 2 -53 -17 -70 -12 -11 -25 -20 -29 -20 -4 0 -4 32 0 70 l7 70
-47 0 -46 0 0 40 c0 22 -4 40 -9 40 -14 0 -25 151 -11 160 8 5 8 13 -1 33 -7
15 -15 27 -19 27 -14 0 -30 -52 -30 -98 l-1 -47 -16 35 -15 35 -10 -29 c-8
-21 -7 -30 2 -36 16 -10 5 -43 -12 -38 -15 5 -26 60 -29 143 -1 33 -4 48 -6
33 -4 -25 -8 -28 -44 -28 -28 0 -39 -4 -39 -15 0 -11 -11 -15 -39 -15 -36 0
-39 2 -44 33 -3 18 -4 58 -2 88 3 70 42 328 60 399 8 30 19 84 25 120 6 36 25
119 41 184 16 66 28 124 26 129 -3 9 -22 -52 -87 -283 -16 -58 -34 -106 -40
-108 -6 -2 -8 -8 -5 -12 3 -5 3 -27 -1 -49 -4 -27 -11 -38 -19 -34 -16 6 -38
-32 -32 -55 3 -12 5 -11 6 6 1 27 21 30 21 3 0 -19 -25 -35 -40 -26 -16 10
-33 -26 -27 -60 5 -31 4 -33 -9 -21 -12 13 -12 23 0 83 8 38 20 81 26 97 6 18
7 33 2 38 -14 14 -392 110 -408 104 -8 -3 -14 -14 -14 -24 0 -10 -8 -27 -18
-38 -10 -10 -16 -26 -14 -35 1 -8 -2 -28 -8 -44 -8 -22 -13 -26 -23 -16 -9 9
-9 14 2 20 9 6 11 16 7 27 -6 16 -8 16 -16 4 -6 -8 -10 -24 -11 -35 l0 -20
-10 20 c-8 17 -9 17 -5 -5 3 -14 1 -32 -4 -40 -8 -12 -11 -11 -16 8 -8 28 -34
29 -34 0 0 -12 -3 -18 -7 -15 -3 4 1 33 10 64 8 32 29 108 45 168 35 128 114
379 135 427 32 75 57 142 53 145 -3 4 -86 -174 -86 -186 0 -4 -18 -49 -39 -99
-22 -50 -47 -115 -56 -144 -10 -29 -21 -57 -25 -63 -3 -5 -12 -30 -19 -55 -22
-75 -50 -135 -61 -132 -7 1 -9 -9 -5 -32 5 -23 2 -38 -7 -47 -8 -7 -13 -24
-11 -38 4 -25 4 -25 -11 -7 -13 16 -18 17 -31 6 -8 -7 -15 -18 -15 -25 0 -8
-8 -11 -20 -8 -11 3 -20 0 -20 -6 0 -6 -9 -11 -20 -11 -17 0 -20 7 -20 50 0
39 -4 53 -20 62 -16 10 -20 24 -20 70 l0 58 -36 0 c-45 0 -63 -21 -65 -75 -1
-22 -3 -32 -6 -22 -7 27 -23 20 -23 -10 0 -16 -5 -35 -10 -43 -44 -68 67 265
156 468 8 17 21 49 30 70 30 67 193 396 230 462 95 171 243 398 306 472 13 15
36 43 51 62 23 30 32 35 54 30 22 -6 25 -4 20 10 -8 20 20 22 59 4 22 -10 28
-10 32 0 3 10 7 10 18 1 10 -8 14 -8 14 0 0 15 37 14 43 -1 3 -8 6 -7 6 4 1 9
10 19 20 23 11 3 34 19 51 35 19 18 37 27 47 23 11 -4 14 -2 9 5 -4 7 -3 12 1
12 5 0 31 18 58 41 27 22 51 36 53 30 2 -6 8 -11 14 -11 26 0 85 -61 97 -100
17 -58 55 -97 128 -132 68 -33 76 -49 48 -98 -19 -33 -19 -46 0 -30 20 17 32
5 15 -15 -10 -12 -10 -15 4 -15 9 0 16 -7 16 -16 0 -9 5 -12 11 -8 17 10 149
-37 149 -53 0 -9 7 -12 19 -8 10 3 23 -1 30 -8 6 -8 33 -22 59 -32 26 -10 54
-26 63 -36 10 -12 19 -15 26 -8 6 6 16 -4 28 -31 10 -22 23 -39 29 -38 15 2
66 -23 66 -34 0 -4 6 -8 13 -8 6 0 26 -13 43 -29 17 -16 45 -36 62 -45 18 -9
32 -23 32 -32 0 -8 4 -13 9 -9 5 3 12 -3 16 -14 3 -11 21 -29 40 -40 l35 -20
20 21 20 22 0 -30 c1 -28 2 -28 26 16 l25 45 -7 -40 c-18 -114 -12 -155 34
-204 12 -13 22 -29 22 -35 1 -6 30 -33 67 -61 36 -27 74 -58 84 -67 11 -10 19
-15 19 -10 0 4 5 -1 11 -11 6 -9 14 -15 19 -12 4 3 11 -6 14 -20 8 -32 20 -32
34 0 6 13 30 34 54 45 116 57 114 56 128 107 17 61 49 137 55 131 3 -3 -2 -40
-10 -84 -23 -119 -28 -185 -14 -182 7 2 18 -7 24 -20 19 -36 23 -36 41 1 15
32 24 38 78 51 102 25 155 41 162 49 4 4 15 7 24 7 10 0 52 18 93 40 103 55
248 92 485 125 62 8 116 15 120 15 23 1 34 26 46 109 14 95 22 114 34 94 5 -9
96 -13 317 -16 300 -3 663 -23 676 -36 4 -3 9 -78 13 -167 l6 -161 -113 -6
c-118 -6 -226 -25 -317 -57 -77 -26 -59 -24 67 7 97 24 126 27 288 28 157 0
180 -2 183 -16 2 -14 -13 -17 -100 -22 -112 -6 -277 -36 -374 -68 -107 -35
-255 -134 -295 -198 -9 -14 -19 -46 -22 -70 l-5 -43 26 24 c69 62 177 117 301
152 105 30 164 32 96 3 -22 -10 -58 -27 -80 -37 l-40 -20 35 6 c185 33 210 42
210 76 0 15 -5 19 -19 15 -14 -3 -18 -1 -14 9 15 40 -230 -11 -349 -73 -38
-20 -83 -47 -99 -60 -36 -31 -37 -18 -1 23 33 38 79 71 153 112 89 49 156 71
279 93 228 40 431 35 541 -12 27 -12 52 -19 55 -17 8 9 -86 72 -136 92 -25 10
-92 28 -150 40 l-105 22 0 168 0 168 125 4 c69 3 141 9 160 14 68 18 268 30
488 30 l222 0 11 -26 c5 -15 12 -53 16 -85 3 -31 8 -62 12 -67 3 -5 78 -19
166 -31 88 -12 189 -26 225 -32 72 -12 221 -54 260 -74 33 -17 113 -45 121
-42 3 1 12 -3 20 -9 13 -10 38 -18 141 -45 37 -10 50 -20 64 -48 l18 -36 4 27
c2 18 10 28 24 30 38 5 43 30 29 120 -23 144 -24 154 -13 143 6 -5 22 -44 36
-87 28 -85 71 -143 86 -118 8 13 10 12 10 -2 0 -10 8 -18 18 -18 9 0 28 -10
42 -23 14 -13 31 -22 38 -19 7 2 12 -5 12 -16 0 -11 7 -25 15 -32 17 -14 17
-15 33 22 8 19 16 26 27 22 10 -4 15 -2 13 7 -2 7 12 21 31 31 18 9 46 28 60
42 15 14 32 26 38 26 6 0 15 12 21 28 5 15 23 42 39 59 42 45 43 50 27 134
-16 85 -18 138 -5 124 15 -16 59 -135 82 -223 12 -45 24 -80 26 -79 5 5 -23
136 -36 170 -6 16 -11 38 -11 50 1 20 2 21 14 5 7 -10 18 -18 25 -18 6 0 11
-7 11 -15 0 -8 -5 -15 -11 -15 -5 0 -7 -5 -4 -10 4 -7 14 -2 26 11 22 25 24
40 7 57 -6 6 -8 15 -3 19 4 5 10 2 12 -5 3 -7 18 8 36 35 18 26 53 69 79 95
27 26 48 51 48 56 0 5 15 15 33 23 17 7 43 23 56 36 13 13 30 23 37 23 8 0 14
7 14 15 0 9 8 19 18 22 9 4 23 13 30 20 7 7 22 13 33 13 10 0 19 4 19 8 0 4
16 14 36 21 20 7 45 22 56 33 11 11 40 29 64 40 24 10 54 32 66 48 24 33 42
27 59 -18 5 -14 12 -23 15 -20 2 3 0 17 -6 32 -15 40 -12 62 8 63 52 4 103 17
113 29 6 8 20 14 30 14 18 0 32 15 35 38 4 24 14 26 14 4 0 -12 4 -22 9 -22
14 0 33 28 27 39 -4 6 10 13 31 16 21 3 50 12 65 19 19 10 29 11 37 3 20 -20
12 2 -20 53 -17 28 -34 49 -37 46 -2 -3 1 -12 8 -21 10 -12 10 -15 -3 -15 -8
0 -17 5 -19 10 -4 14 -29 15 -100 6 -32 -4 -58 -4 -58 0 0 15 34 44 52 44 10
0 18 7 18 16 0 9 9 18 21 21 11 3 25 17 30 30 11 30 20 25 67 -40z m142 -117
c0 -5 -2 -10 -4 -10 -3 0 -8 5 -11 10 -3 6 -1 10 4 10 6 0 11 -4 11 -10z
m-8053 -66 c-3 -3 -12 -4 -19 -1 -8 3 -5 6 6 6 11 1 17 -2 13 -5z m6623 -49
c42 -22 54 -49 38 -82 -17 -35 -52 -53 -104 -53 -81 0 -128 48 -96 98 32 49
106 66 162 37z m-4919 -58 c61 -41 43 -98 -39 -125 -68 -23 -144 30 -129 90 6
24 17 31 77 48 42 13 56 11 91 -13z m-1976 -56 c-3 -12 -11 -21 -16 -21 -5 0
-9 -5 -9 -12 0 -7 -17 -37 -39 -68 -21 -30 -47 -71 -58 -90 -10 -19 -40 -68
-66 -107 -25 -40 -59 -96 -74 -125 -14 -29 -34 -64 -43 -78 -18 -26 -208 -403
-278 -550 -76 -161 -92 -199 -92 -222 0 -19 -2 -20 -14 -8 -18 20 -31 80 -17
80 6 0 11 18 11 40 0 22 5 40 10 40 6 0 10 11 10 24 0 13 7 43 15 66 8 23 15
55 15 71 0 19 5 29 14 29 16 0 31 34 21 49 -3 5 -1 13 5 16 6 4 8 16 4 27 -4
14 -2 18 5 14 6 -4 11 0 11 8 0 9 5 16 10 16 6 0 10 10 10 23 0 13 11 46 25
73 14 27 25 54 25 60 0 7 7 14 15 18 8 3 15 12 15 21 0 25 35 88 69 124 17 18
31 37 31 41 0 5 10 16 22 24 14 10 17 16 8 16 -9 0 -7 7 8 23 12 13 22 31 22
40 0 9 4 17 8 17 5 0 27 28 49 63 22 34 64 87 92 117 28 30 51 61 51 68 0 6 7
12 15 12 8 0 15 5 15 10 0 6 7 10 15 10 9 0 19 9 23 21 7 18 51 50 60 43 2 -1
1 -12 -3 -23z m9475 -1125 c0 -11 -19 -15 -25 -6 -3 5 1 10 9 10 9 0 16 -2 16
-4z m13 -208 c2 -26 1 -45 -4 -42 -5 3 -9 25 -9 50 0 24 -3 43 -7 43 -18 -3
-24 2 -17 12 12 20 31 -14 37 -63z m-10186 10 c-3 -8 -6 -5 -6 6 -1 11 2 17 5
13 3 -3 4 -12 1 -19z m10053 -14 c0 -8 -4 -12 -10 -9 -5 3 -10 10 -10 16 0 5
5 9 10 9 6 0 10 -7 10 -16z m-10060 -14 c0 -5 -4 -10 -9 -10 -4 0 -13 -19 -18
-42 l-11 -43 -1 38 c0 21 5 44 12 52 14 17 27 19 27 5z m7842 -22 c-9 -9 -15
-9 -24 0 -9 9 -7 12 12 12 19 0 21 -3 12 -12z m-7735 -45 c-3 -10 -5 -2 -5 17
0 19 2 27 5 18 2 -10 2 -26 0 -35z m547 1 c17 -6 21 -40 8 -61 -10 -16 -52 -5
-52 13 0 8 7 14 16 14 11 0 14 6 9 20 -7 22 -5 23 19 14z m107 -14 c12 -7 19
-21 19 -40 0 -17 -2 -30 -3 -30 -12 0 -67 33 -64 38 2 4 7 15 10 25 7 20 12
21 38 7z m6359 0 c0 -5 -9 -10 -21 -10 -11 0 -17 5 -14 10 3 6 13 10 21 10 8
0 14 -4 14 -10z m-6263 -60 c-3 -12 1 -24 11 -30 15 -8 15 -9 -2 -10 -10 0
-16 -5 -13 -13 2 -7 -4 -24 -16 -37 l-20 -25 7 55 c7 49 19 80 33 80 3 0 3 -9
0 -20z m-161 -19 c5 -5 22 -11 38 -13 22 -2 32 -10 39 -31 11 -34 0 -49 -31
-40 -21 5 -21 6 -5 18 15 11 14 14 -14 28 -27 15 -32 15 -43 2 -10 -12 -10
-18 1 -32 13 -15 10 -16 -35 -10 -58 8 -63 12 -46 32 14 17 40 20 40 4 0 -5 5
-7 12 -3 9 6 9 9 0 12 -7 2 -12 10 -12 17 0 12 10 17 41 24 3 0 9 -3 15 -8z
m-346 -22 c0 -11 -4 -17 -10 -14 -5 3 -10 13 -10 21 0 8 5 14 10 14 6 0 10 -9
10 -21z m557 -21 c-3 -8 -6 -5 -6 6 -1 11 2 17 5 13 3 -3 4 -12 1 -19z m5610
0 c-3 -8 -6 -5 -6 6 -1 11 2 17 5 13 3 -3 4 -12 1 -19z m-6201 -43 c-3 -8 -11
-15 -18 -14 -10 0 -10 2 0 6 6 2 12 14 13 26 0 12 3 16 6 9 3 -7 2 -19 -1 -27z
m6275 5 c6 0 8 -4 5 -8 -4 -7 -37 -8 -53 -3 -2 1 5 10 15 21 14 17 18 18 20 5
2 -8 8 -15 13 -15z m46 14 c-3 -3 -12 -4 -19 -1 -8 3 -5 6 6 6 11 1 17 -2 13
-5z m3152 -26 c-1 -18 -3 -25 -6 -15 -2 9 -9 17 -14 17 -5 0 -9 7 -9 15 0 8 7
15 15 15 10 0 15 -10 14 -32z m-31 -32 c8 -21 9 -42 4 -56 -11 -29 -18 -18
-26 43 -8 55 4 62 22 13z m-8778 -3 c0 -21 -3 -24 -9 -14 -5 8 -7 20 -4 28 8
21 13 15 13 -14z m8615 -233 c3 -5 -3 -10 -15 -10 -12 0 -18 5 -15 10 3 6 10
10 15 10 5 0 12 -4 15 -10z m-7558 -122 c-3 -7 -5 -2 -5 12 0 14 2 19 5 13 2
-7 2 -19 0 -25z m6051 -90 c-10 -8 -10 -11 0 -15 14 -5 17 -63 3 -63 -19 0
-23 44 -10 104 14 59 14 60 17 22 2 -24 -2 -42 -10 -48z m1350 10 c-6 -17 -36
-34 -44 -25 -4 4 1 14 12 22 23 18 37 19 32 3z m-8158 -18 c0 -5 -4 -10 -10
-10 -5 0 -10 5 -10 10 0 6 5 10 10 10 6 0 10 -4 10 -10z m537 -16 c-3 -3 -12
-4 -19 -1 -8 3 -5 6 6 6 11 1 17 -2 13 -5z m7243 -34 c0 -11 -7 -20 -15 -20
-17 0 -18 2 -9 24 9 23 24 20 24 -4z m530 16 c0 -3 -4 -8 -10 -11 -5 -3 -10
-1 -10 4 0 6 5 11 10 11 6 0 10 -2 10 -4z m-350 -26 c0 -5 -5 -10 -11 -10 -5
0 -7 5 -4 10 3 6 8 10 11 10 2 0 4 -4 4 -10z m-790 -60 c0 -5 -4 -10 -10 -10
-5 0 -10 5 -10 10 0 6 5 10 10 10 6 0 10 -4 10 -10z m-353 -102 c-3 -8 -6 -5
-6 6 -1 11 2 17 5 13 3 -3 4 -12 1 -19z m1543 -8 c0 -11 -4 -20 -9 -20 -13 0
-32 26 -24 33 13 14 33 6 33 -13z m-365 -5 c0 -5 -10 -11 -22 -13 -16 -2 -23
2 -23 13 0 11 7 15 23 13 12 -2 22 -7 22 -13z m-8825 -15 c0 -5 -8 -10 -17
-10 -15 0 -16 2 -3 10 19 12 20 12 20 0z m9000 -25 c-7 -8 -20 -15 -29 -15
-13 1 -13 3 3 15 26 19 42 19 26 0z m-8645 -5 c3 -5 -1 -10 -9 -10 -9 0 -16 5
-16 10 0 6 4 10 9 10 6 0 13 -4 16 -10z m8495 -130 c0 -5 -9 -10 -19 -10 -11
0 -23 5 -26 10 -4 6 5 10 19 10 14 0 26 -4 26 -10z m-8510 -30 c0 -5 -5 -10
-11 -10 -5 0 -7 5 -4 10 3 6 8 10 11 10 2 0 4 -4 4 -10z m48 -372 c3 -22 -1
-28 -17 -28 -46 0 -65 22 -39 48 22 22 53 10 56 -20z m-194 6 c9 -3 16 -15 16
-25 0 -15 -7 -19 -35 -19 -27 0 -35 4 -35 18 0 31 19 40 54 26z m-189 -34 c0
-29 -34 -40 -54 -17 -9 12 -8 18 5 31 23 24 49 16 49 -14z m8993 -2 c4 -32
-17 -38 -42 -12 -26 25 -20 46 12 42 21 -2 28 -9 30 -30z m-171 6 c-3 -3 -12
-4 -19 -1 -8 3 -5 6 6 6 11 1 17 -2 13 -5z m-8439 -148 c5 -25 -9 -37 -36 -30
-21 6 -30 33 -15 48 13 13 48 1 51 -18z m-180 -33 c-2 -22 -9 -29 -29 -31 -35
-4 -55 20 -34 42 9 9 28 16 41 16 22 0 25 -4 22 -27z m8782 12 c14 -17 7 -45
-12 -45 -17 0 -41 38 -33 50 9 15 31 12 45 -5z m-183 -6 c-14 -8 -22 -8 -30 0
-8 8 -3 11 19 11 25 -1 27 -2 11 -11z m-8790 -19 c2 -26 -11 -33 -48 -25 -35
8 -34 26 2 36 39 11 45 10 46 -11z m8793 -70 c0 -5 -4 -10 -9 -10 -6 0 -13 5
-16 10 -3 6 1 10 9 10 9 0 16 -4 16 -10z m-8407 -61 c4 -15 2 -19 -10 -15 -21
8 -39 -4 -22 -15 11 -7 11 -9 -2 -9 -28 0 -42 25 -24 44 23 22 52 20 58 -5z
m-188 -29 c10 -16 -14 -40 -41 -40 -29 0 -40 16 -24 35 14 17 56 20 65 5z
m8773 -17 c4 -27 -14 -30 -40 -6 -26 23 -22 35 10 31 19 -2 28 -9 30 -25z
m-8968 -28 c0 -29 -7 -31 -32 -8 -25 22 -23 33 7 33 20 0 25 -5 25 -25z m8780
-70 c7 -8 11 -15 9 -16 -36 -8 -59 -8 -64 1 -17 28 33 42 55 15z m-8392 -27
c15 -15 16 -32 1 -23 -6 4 -17 -1 -24 -11 -15 -20 -18 -12 -9 24 7 25 15 27
32 10z m-48 -8 c0 -5 -5 -10 -11 -10 -5 0 -7 5 -4 10 3 6 8 10 11 10 2 0 4 -4
4 -10z m8610 -30 c10 0 11 -3 3 -11 -12 -12 -63 -2 -63 13 0 6 10 8 23 4 12
-3 29 -6 37 -6z m-8740 -7 c0 -5 -7 -17 -16 -28 -11 -15 -18 -17 -31 -9 -24
15 -27 32 -6 37 30 8 53 7 53 0z m-195 -53 c-5 -8 -11 -8 -17 -2 -6 6 -7 16
-3 22 5 8 11 8 17 2 6 -6 7 -16 3 -22z m8746 -10 c5 0 9 -5 9 -11 0 -15 -43
-7 -48 10 -3 10 0 12 12 8 10 -4 22 -7 27 -7z m-8354 -76 c13 -14 21 -30 18
-35 -11 -16 -25 -9 -31 16 -3 14 -10 25 -15 25 -5 0 -9 5 -9 10 0 16 11 12 37
-16z m8731 -28 c5 -25 -44 -22 -51 3 -3 11 -3 22 0 25 10 9 48 -11 51 -28z
m-8778 3 c0 -11 -4 -17 -10 -14 -5 3 -10 13 -10 21 0 8 5 14 10 14 6 0 10 -9
10 -21z m-132 -31 c-5 -15 -58 -24 -58 -10 0 15 12 22 38 22 14 0 22 -5 20
-12z m8516 -7 c3 -4 3 -11 0 -14 -8 -7 -44 4 -44 14 0 12 37 12 44 0z m-8717
-47 c-9 -9 -28 6 -21 18 4 6 10 6 17 -1 6 -6 8 -13 4 -17z m8888 -4 c11 -18
-5 -31 -26 -20 -11 6 -17 15 -14 21 8 12 32 12 40 -1z m195 -40 c0 -13 -11
-13 -30 0 -12 8 -11 10 8 10 12 0 22 -4 22 -10z m-225 -80 c3 -6 -1 -7 -9 -4
-18 7 -21 14 -7 14 6 0 13 -4 16 -10z m210 -60 c3 -5 2 -10 -4 -10 -5 0 -13 5
-16 10 -3 6 -2 10 4 10 5 0 13 -4 16 -10z m-1890 -16 c9 -9 15 -28 13 -43 -3
-24 -8 -26 -58 -31 l-55 -5 50 -32 c28 -18 86 -48 130 -68 44 -19 91 -42 105
-50 14 -7 59 -31 100 -53 166 -85 333 -174 485 -257 232 -128 261 -144 358
-205 48 -30 95 -59 105 -65 67 -38 222 -137 227 -145 4 -6 11 -8 16 -5 5 4 9
2 9 -3 0 -5 29 -24 65 -41 35 -18 70 -37 78 -44 7 -7 28 -21 47 -31 19 -10 64
-40 99 -65 36 -25 104 -73 153 -107 48 -33 105 -74 125 -91 21 -18 86 -68 146
-112 301 -222 797 -695 764 -728 -12 -11 -43 10 -127 87 -46 41 -92 81 -104
89 -12 8 -42 33 -67 55 -26 23 -78 67 -115 98 -38 32 -80 67 -94 79 -14 12
-41 33 -60 48 -19 14 -48 37 -63 51 -33 29 -67 44 -67 30 0 -6 -7 -10 -15 -10
-8 0 -15 5 -15 10 0 6 -5 10 -10 10 -15 0 20 -45 47 -62 12 -7 41 -32 66 -55
25 -23 73 -66 108 -94 90 -74 379 -362 379 -378 0 -7 -6 -11 -14 -9 -15 3
-172 137 -387 328 -76 68 -170 144 -359 290 -74 57 -151 116 -170 132 -40 33
-44 36 -87 66 -17 12 -37 22 -45 22 -7 0 -26 13 -41 30 -16 16 -38 35 -51 42
-49 28 -152 97 -171 114 -11 11 -22 19 -25 19 -9 1 -95 59 -134 92 -22 18 -44
33 -49 33 -5 0 -20 9 -34 20 -14 11 -35 20 -45 20 -11 0 -22 9 -25 20 -3 11
-11 20 -17 20 -7 0 -18 10 -25 23 -11 20 -86 78 -151 117 -14 8 -80 51 -146
95 -67 44 -152 98 -188 120 -37 22 -73 45 -79 50 -31 27 -441 265 -456 265 -6
0 -15 9 -21 21 -10 17 -8 21 9 26 12 3 21 9 21 12 0 10 -124 80 -242 137 -54
26 -98 52 -98 59 0 7 19 21 43 31 116 50 136 53 162 28z m-5024 -98 c23 -19
39 -26 55 -22 l23 6 -20 -35 c-20 -34 -39 -46 -39 -25 0 7 -6 7 -17 1 -10 -5
-66 -32 -125 -60 -60 -27 -108 -55 -108 -61 0 -15 16 -12 52 10 49 29 67 24
22 -6 -21 -14 -52 -41 -69 -59 -16 -18 -79 -59 -140 -91 -131 -68 -249 -136
-253 -146 -2 -5 -8 -8 -14 -8 -10 0 -226 -128 -302 -178 -21 -15 -46 -31 -56
-37 -23 -12 -183 -115 -270 -172 -36 -24 -76 -52 -90 -64 -13 -12 -35 -26 -47
-32 -13 -6 -23 -13 -23 -17 0 -4 -13 -13 -30 -20 -16 -7 -30 -16 -30 -19 0 -4
-18 -17 -40 -30 -22 -12 -40 -26 -40 -32 0 -5 -9 -9 -20 -9 -11 0 -20 -4 -20
-10 0 -5 -4 -10 -10 -10 -11 0 -91 -50 -313 -195 -84 -55 -161 -104 -170 -110
-27 -16 -156 -105 -244 -167 -44 -32 -84 -58 -88 -58 -3 0 -13 -6 -20 -12 -8
-7 -46 -35 -85 -63 -38 -27 -114 -83 -168 -123 -201 -152 -278 -208 -305 -226
-28 -17 -28 -17 -18 2 26 48 296 283 446 387 47 33 124 88 170 123 46 34 88
62 93 62 6 0 12 3 14 8 2 4 37 30 78 56 41 27 77 52 80 55 8 10 44 31 63 37 9
4 17 10 17 15 0 5 5 9 10 9 6 0 43 23 83 52 91 65 91 65 79 72 -5 3 -20 -4
-33 -15 -13 -11 -37 -27 -54 -34 -16 -7 -45 -27 -63 -44 -18 -17 -39 -31 -47
-31 -8 0 -18 -6 -22 -13 -9 -15 -87 -67 -123 -83 -14 -6 -41 -25 -60 -43 -19
-17 -40 -31 -48 -31 -7 0 -10 -5 -6 -12 5 -7 0 -9 -14 -6 -16 4 -19 2 -15 -10
4 -9 2 -13 -4 -9 -6 4 -16 0 -23 -8 -7 -8 -23 -15 -37 -15 -13 0 -26 -7 -29
-15 -4 -8 -10 -15 -16 -15 -19 0 -108 -65 -114 -83 -3 -10 -12 -16 -19 -13 -8
3 -19 -1 -25 -9 -7 -8 -21 -17 -33 -21 -25 -8 -197 -124 -197 -133 0 -3 -15
-12 -33 -20 -17 -8 -48 -27 -68 -43 -20 -15 -40 -28 -43 -28 -3 0 -29 -16 -56
-36 -53 -38 -69 -40 -51 -6 10 19 153 154 221 209 19 15 37 30 40 33 3 3 39
33 80 66 41 32 79 63 85 67 8 7 79 57 240 171 122 86 437 289 575 370 63 38
147 87 186 111 39 23 80 46 92 49 12 4 22 12 22 17 0 5 4 9 8 9 8 0 196 109
258 150 16 11 35 20 41 20 6 0 13 3 15 8 3 7 163 102 172 102 2 0 36 18 74 39
38 22 114 63 168 91 55 28 106 55 114 60 43 26 198 109 293 157 59 30 107 57
107 60 0 3 -12 2 -27 -1 l-28 -6 23 19 c32 28 28 33 -25 29 -42 -3 -48 0 -51
18 -3 20 2 20 102 21 93 0 103 -2 86 -14 -23 -16 -26 -33 -7 -33 19 0 207 92
207 102 0 4 -8 8 -18 8 -27 0 -82 29 -82 44 0 45 98 46 151 2z m2307 -34 c2
-7 -3 -12 -12 -12 -9 0 -16 7 -16 16 0 17 22 14 28 -4z m2895 -4 c59 -30 60
-30 69 -14 14 25 35 19 41 -11 10 -49 -11 -56 -73 -26 -52 25 -80 45 -80 57 0
9 19 7 43 -6z m177 -16 c0 -5 17 -17 38 -28 20 -10 43 -27 51 -37 7 -10 19
-16 27 -13 8 3 30 -3 49 -14 20 -11 44 -20 55 -20 11 0 20 -7 20 -15 0 -8 12
-18 28 -21 15 -4 37 -14 49 -21 12 -8 31 -12 41 -9 14 5 27 -2 45 -23 18 -22
30 -28 46 -24 17 4 24 0 28 -16 3 -11 11 -21 18 -21 7 0 18 -7 25 -15 7 -8 27
-17 46 -21 18 -3 38 -12 44 -19 6 -7 33 -21 61 -31 27 -10 49 -22 49 -26 0 -4
6 -8 14 -8 7 0 24 -8 37 -19 13 -10 30 -16 37 -14 6 3 12 0 12 -6 0 -6 6 -11
14 -11 15 0 30 -45 21 -60 -4 -6 -2 -10 4 -10 5 0 13 5 16 10 3 6 16 10 29 10
29 0 141 -54 180 -87 19 -16 31 -20 36 -13 4 6 12 0 20 -16 8 -14 24 -30 35
-36 30 -13 61 -32 79 -47 11 -9 16 -10 16 -2 0 7 20 1 48 -13 26 -13 65 -27
85 -31 20 -4 37 -11 37 -17 0 -5 3 -7 8 -4 4 2 23 -8 41 -23 31 -25 33 -30 24
-57 -8 -24 -15 -29 -39 -27 -39 2 -190 74 -252 120 -18 13 -22 22 -16 45 5 27
5 28 -14 17 -17 -10 -24 -10 -45 4 -22 14 -26 15 -31 1 -5 -13 -9 -13 -33 4
-16 10 -51 30 -79 44 -94 48 -129 70 -141 85 -7 9 -19 12 -30 9 -12 -4 -27 2
-41 14 -11 11 -32 20 -46 20 -13 0 -26 4 -28 9 -4 10 -199 111 -215 111 -6 0
-16 7 -23 15 -7 8 -23 15 -36 15 -12 0 -25 4 -28 9 -3 4 -34 22 -70 39 -35 17
-67 35 -71 41 -3 6 -13 11 -21 11 -9 0 -30 11 -48 25 -18 14 -40 25 -49 25
-10 0 -17 4 -17 8 0 4 -23 16 -51 27 -28 11 -55 26 -61 33 -6 6 -18 12 -27 12
-9 0 -22 5 -29 12 -13 13 -17 90 -5 101 9 10 33 9 33 -1z m-7259 -17 c-18 -8
-36 -15 -40 -15 -13 1 45 29 59 29 8 0 0 -6 -19 -14z m4349 5 c0 -5 -4 -10
-10 -10 -5 0 -10 5 -10 10 0 6 5 10 10 10 6 0 10 -4 10 -10z m162 -12 c-9 -9
-15 -9 -24 0 -9 9 -7 12 12 12 19 0 21 -3 12 -12z m4064 -12 c15 -11 16 -17 7
-27 -9 -9 -18 -8 -38 5 -25 17 -26 36 -1 36 7 0 21 -6 32 -14z m-3986 -11 c0
-8 -4 -15 -10 -15 -5 0 -10 7 -10 15 0 8 5 15 10 15 6 0 10 -7 10 -15z m-4671
1 c-9 -10 -201 -78 -205 -73 -3 3 16 13 43 23 26 9 68 25 93 35 42 17 79 24
69 15z m1956 -6 c-3 -5 -11 -10 -16 -10 -6 0 -7 5 -4 10 3 6 11 10 16 10 6 0
7 -4 4 -10z m-472 -17 c22 -79 32 -66 -102 -133 -39 -19 -70 -41 -71 -47 0 -7
-3 -12 -7 -11 -5 1 -28 -8 -53 -21 -82 -41 -93 -48 -78 -54 7 -4 0 -3 -16 0
-22 5 -27 3 -21 -7 6 -10 2 -12 -14 -7 -17 4 -21 2 -17 -9 3 -8 2 -13 -2 -10
-11 7 -123 -49 -115 -58 3 -3 -3 -6 -15 -6 -12 0 -22 -5 -22 -11 0 -5 -5 -7
-10 -4 -14 9 -72 -34 -64 -47 5 -7 2 -8 -5 -3 -7 4 -23 3 -34 -3 -12 -5 -43
-17 -69 -26 -25 -10 -52 -24 -58 -32 -7 -7 -18 -14 -25 -14 -7 0 -41 -14 -74
-31 -34 -18 -63 -30 -66 -28 -2 3 -7 27 -10 54 l-7 50 61 19 c34 11 66 25 72
33 6 7 17 13 24 13 6 0 20 9 29 19 10 11 30 22 44 26 50 11 132 56 132 72 0
11 6 14 25 9 14 -4 25 -2 25 3 0 4 20 14 45 21 25 7 45 17 45 21 0 5 8 9 18 9
9 0 28 12 41 25 13 14 31 25 41 25 29 0 50 11 50 26 0 8 10 13 23 13 30 -1 92
23 120 47 12 11 27 21 32 22 6 2 20 5 32 8 12 3 24 13 28 22 5 14 7 14 15 2 7
-11 11 -9 19 13 12 31 27 35 34 10z m417 -13 c-14 -10 -27 -17 -29 -14 -6 5
31 33 44 33 6 1 -1 -8 -15 -19z m-1760 -290 c0 -23 -36 -54 -54 -47 -21 8 -32
57 -16 67 7 5 19 6 27 3 7 -3 13 0 13 7 0 10 3 10 15 0 8 -7 15 -20 15 -30z
m5743 -60 c-44 -41 -103 -115 -103 -129 0 -6 -4 -11 -10 -11 -5 0 -10 -5 -10
-12 0 -9 3 -9 12 0 17 17 38 15 38 -3 0 -11 12 -15 44 -15 43 0 53 -9 60 -55
2 -15 35 -18 50 -5 11 9 14 5 13 -22 -2 -32 0 -33 43 -39 28 -4 34 -7 18 -7
-26 -2 -28 -5 -28 -42 0 -36 3 -40 24 -40 23 0 24 -4 31 -80 5 -58 11 -80 21
-80 10 0 14 -12 14 -40 0 -33 3 -40 20 -40 15 0 20 -7 20 -30 0 -31 29 -66 68
-81 13 -5 28 -22 33 -39 6 -16 17 -30 25 -30 8 0 14 -7 14 -15 0 -8 1 -18 3
-22 1 -5 -18 -11 -43 -15 -25 -3 -74 -11 -110 -17 -36 -6 -90 -11 -121 -11
-30 0 -59 -4 -65 -9 -5 -6 -29 -11 -54 -14 -35 -3 -30 -4 23 -5 39 -1 66 2 63
7 -4 5 3 7 14 4 11 -3 77 2 147 11 71 9 144 19 163 21 27 4 40 -1 62 -22 22
-21 28 -23 28 -10 0 21 4 21 35 1 16 -11 37 -14 69 -10 27 3 46 2 46 -4 0 -6
7 -10 16 -10 8 0 30 -15 47 -33 18 -18 44 -38 60 -45 15 -6 26 -15 25 -19 -4
-11 5 -13 52 -13 22 0 40 4 40 9 0 5 -6 8 -12 7 -7 0 -13 4 -13 9 0 6 6 9 13
9 7 -1 11 3 9 10 -2 6 -20 11 -40 11 -24 0 -37 5 -37 13 0 9 11 12 33 10 28
-3 32 0 29 20 -4 25 10 29 32 7 17 -17 46 -20 46 -5 0 6 -7 10 -15 10 -8 0
-15 7 -15 15 0 8 6 15 14 15 7 0 16 9 19 20 3 11 12 20 21 20 13 0 16 -10 14
-47 l-1 -48 -6 44 -6 44 -15 -28 c-12 -22 -12 -29 -2 -32 7 -3 12 -21 12 -43
0 -24 5 -40 15 -44 8 -3 15 -1 15 5 0 6 4 8 9 5 4 -3 6 26 3 64 -3 49 -1 70 7
70 6 0 12 -20 13 -47 l2 -48 3 48 c3 35 8 47 17 44 12 -5 39 69 77 213 7 25
16 49 21 54 11 13 10 -11 -1 -32 -5 -9 -20 -66 -34 -127 -14 -60 -41 -168 -60
-240 -51 -188 -50 -183 -28 -190 10 -3 39 -31 64 -63 44 -56 106 -128 127
-147 6 -5 19 -18 28 -27 9 -10 22 -18 28 -18 6 0 14 -13 17 -29 4 -16 19 -43
34 -59 15 -16 46 -51 68 -77 22 -27 52 -63 68 -80 15 -18 27 -38 27 -44 0 -6
6 -11 13 -11 6 -1 21 -14 32 -30 43 -61 203 -268 225 -290 3 -3 14 -16 25 -29
18 -22 18 -24 2 -18 -15 6 -16 4 -7 -14 6 -11 17 -18 23 -16 7 2 17 -3 24 -12
23 -30 13 -32 -22 -6 -42 32 -71 23 -30 -9 27 -21 27 -23 12 -52 -8 -16 -19
-28 -23 -26 -5 2 -10 -1 -12 -7 -5 -14 25 -14 33 -1 8 13 25 3 25 -15 0 -9
-15 -17 -41 -21 -27 -5 -36 -10 -27 -15 10 -7 10 -9 1 -9 -7 0 -13 -5 -13 -11
0 -6 6 -9 13 -6 8 3 20 1 28 -4 11 -7 9 -9 -8 -9 -13 0 -23 -5 -23 -11 0 -8
-6 -7 -17 2 -15 13 -15 12 -3 -8 8 -12 20 -19 28 -15 11 4 13 0 8 -15 -4 -14
3 -29 24 -51 16 -18 30 -36 30 -41 0 -4 31 -48 68 -97 38 -49 79 -108 92 -131
13 -24 27 -43 32 -43 4 0 8 -4 8 -10 0 -5 18 -36 41 -67 83 -119 237 -352 299
-453 35 -58 68 -106 72 -108 4 -2 8 -10 8 -18 0 -8 5 -14 10 -14 6 0 10 -4 10
-10 0 -5 14 -32 31 -59 40 -66 47 -109 21 -141 -16 -20 -22 -22 -35 -12 -12
10 -24 7 -66 -14 -51 -27 -60 -37 -41 -49 6 -4 8 -11 4 -16 -3 -5 -10 -7 -15
-3 -6 3 -21 -6 -34 -20 -13 -14 -33 -26 -45 -26 -12 0 -20 -7 -20 -16 0 -12
-7 -14 -32 -9 -24 6 -30 4 -26 -6 18 -48 19 -59 4 -65 -9 -3 -16 -12 -16 -20
0 -17 -12 -18 -29 -1 -10 10 -14 9 -22 -5 -6 -10 -17 -18 -24 -18 -8 0 -15 -6
-15 -14 0 -21 -20 -30 -33 -17 -16 16 -25 13 -29 -9 -2 -12 -7 -20 -13 -20 -5
1 -12 -9 -15 -22 -4 -15 -17 -26 -38 -33 -21 -6 -32 -15 -32 -28 0 -10 -5 -15
-10 -12 -6 4 -17 1 -25 -5 -11 -9 -15 -9 -15 -1 0 6 -7 11 -15 11 -17 0 -20
-25 -5 -35 14 -9 12 -25 -2 -22 -7 1 -19 9 -26 17 -11 13 -12 10 -10 -15 3
-26 0 -30 -18 -27 -16 2 -22 -2 -20 -15 1 -12 -7 -19 -24 -21 -45 -5 -53 -11
-41 -26 16 -19 2 -26 -37 -20 -31 5 -43 -8 -21 -22 8 -4 8 -9 -1 -18 -7 -7
-13 -8 -18 0 -4 6 -15 13 -25 17 -14 5 -16 2 -11 -18 4 -17 2 -25 -6 -25 -7 0
-35 -14 -63 -31 -35 -22 -53 -27 -60 -20 -17 17 -27 13 -27 -9 0 -15 -7 -20
-29 -20 -17 0 -33 -5 -36 -10 -3 -6 -1 -10 4 -10 17 0 13 -30 -5 -37 -8 -3
-13 -12 -9 -20 5 -15 4 -15 -42 4 -8 3 -13 -3 -13 -16 0 -12 -6 -21 -15 -21
-9 0 -15 9 -15 24 0 13 -7 26 -15 30 -17 6 -21 -9 -5 -19 13 -8 13 -35 0 -55
-8 -13 -11 -12 -23 4 -13 18 -14 18 -20 -5 -6 -20 -9 -21 -17 -9 -8 13 -11 11
-16 -7 -4 -13 -10 -23 -15 -23 -5 0 -9 -6 -9 -14 0 -8 -5 -18 -11 -21 -16 -11
-59 4 -59 20 0 8 -4 15 -10 15 -5 0 -10 7 -10 15 0 8 -7 15 -17 15 -15 0 -15
-1 0 -18 22 -24 21 -28 -3 -52 -16 -16 -20 -17 -20 -5 0 8 -5 15 -11 15 -5 0
-8 -4 -4 -10 3 -5 3 -21 -1 -35 -5 -20 -12 -25 -39 -25 -28 0 -32 -3 -28 -20
6 -24 -22 -28 -31 -5 -3 8 -13 15 -22 15 -13 0 -15 -7 -11 -37 3 -21 3 -31 1
-22 -5 17 -64 22 -61 4 1 -5 -8 -11 -20 -13 -13 -2 -23 -8 -23 -13 0 -7 -12
-8 -30 -4 -18 4 -30 3 -30 -4 0 -14 -47 -60 -54 -53 -4 3 1 16 10 30 11 17 13
27 5 35 -8 8 -11 5 -11 -10 0 -31 -24 -47 -43 -28 -9 8 -20 15 -26 15 -16 0
-13 -20 4 -26 8 -4 12 -10 9 -15 -7 -12 -54 -11 -54 1 0 6 -4 10 -10 10 -18 0
-10 -35 10 -48 12 -7 18 -17 14 -23 -4 -8 -9 -7 -14 1 -5 8 -16 9 -30 5 -18
-6 -20 -9 -9 -17 10 -6 3 -7 -18 -3 -21 4 -33 3 -33 -4 0 -6 -5 -11 -11 -11
-6 0 -9 6 -6 14 4 9 0 12 -13 9 -10 -3 -21 -11 -24 -19 -3 -8 -12 -14 -20 -14
-8 0 -17 -6 -20 -12 -5 -11 -7 -11 -12 0 -3 6 -12 12 -20 12 -14 0 -24 -7 -59
-37 -18 -17 -35 -17 -35 0 0 9 -2 9 -9 -1 -7 -11 -9 -11 -14 2 -10 25 -25 19
-20 -8 4 -20 0 -24 -28 -30 -18 -3 -37 -1 -45 4 -7 7 -15 7 -18 2 -3 -5 -15
-12 -27 -15 -16 -4 -19 -2 -15 10 7 16 -10 43 -25 43 -5 0 -9 -4 -9 -10 0 -5
7 -10 15 -10 12 0 11 -5 -3 -32 -25 -47 -55 -67 -45 -29 3 10 0 22 -6 25 -7 5
-11 -3 -11 -19 0 -24 -3 -26 -30 -20 -18 4 -30 2 -30 -3 0 -6 -9 -8 -20 -5
-11 3 -20 9 -20 14 0 15 -27 10 -41 -8 -8 -10 -9 -14 -2 -10 14 9 27 -9 18
-24 -5 -7 -14 -4 -26 7 -10 9 -20 13 -20 8 -1 -5 -2 -16 -3 -24 -2 -24 -36
-25 -36 -1 0 11 -5 23 -10 26 -6 4 -8 11 -5 16 4 5 -1 9 -10 9 -11 0 -14 -6
-9 -25 3 -14 4 -32 0 -40 -5 -13 -9 -13 -27 -3 -14 8 -23 9 -25 3 -14 -35 -22
-38 -53 -25 -29 12 -34 11 -56 -10 -14 -13 -25 -18 -25 -12 0 6 -14 32 -31 57
-23 35 -34 43 -40 33 -10 -15 -12 -34 -2 -25 9 9 34 -13 27 -24 -3 -5 0 -18 7
-30 10 -20 9 -21 -9 -17 -12 3 -23 1 -26 -6 -7 -17 -36 24 -36 52 0 14 -5 22
-12 19 -8 -2 -13 -21 -13 -44 0 -40 -19 -57 -21 -18 0 11 -5 31 -11 44 -13 32
-27 12 -25 -36 2 -36 -20 -55 -41 -34 -17 17 -27 13 -27 -9 0 -11 -4 -20 -10
-20 -5 0 -10 19 -10 43 -1 33 -3 38 -11 24 -14 -23 -45 -22 -52 3 -3 11 -10
20 -17 20 -6 0 -9 -4 -6 -8 3 -5 -8 -7 -23 -4 -23 3 -31 12 -41 43 -10 31 -16
37 -27 28 -17 -15 -17 -29 2 -29 9 0 14 -8 12 -22 -1 -17 4 -24 19 -26 20 -3
34 -27 34 -59 0 -19 -21 -16 -36 4 -8 11 -13 13 -14 6 0 -22 -20 -14 -20 7 0
11 -2 20 -5 20 -9 0 -50 -45 -48 -52 4 -12 -22 -9 -35 4 -9 9 -15 9 -24 0 -19
-19 -46 -14 -53 9 -5 16 -12 19 -28 14 -12 -4 -30 -7 -41 -6 -10 0 -20 -9 -23
-20 -3 -10 -8 -19 -12 -19 -13 0 -31 24 -31 42 0 22 -8 23 -31 2 -19 -17 -39
-11 -39 12 0 8 -4 13 -9 10 -5 -3 -7 -15 -4 -26 3 -11 0 -20 -6 -20 -6 0 -11
-7 -11 -15 0 -22 -17 -18 -23 5 -3 11 -10 20 -17 20 -6 0 -8 -5 -5 -10 8 -13
-28 -13 -42 1 -7 7 -9 3 -6 -14 6 -30 -13 -45 -22 -18 -3 10 -5 23 -4 27 1 5
1 25 0 44 l-1 35 -20 -25 c-13 -17 -16 -28 -8 -37 5 -7 8 -17 6 -23 -5 -16
-48 23 -48 44 0 9 -3 16 -6 16 -11 0 -33 -34 -34 -51 0 -22 -30 -20 -30 3 0
24 -25 23 -50 -2 -11 -11 -21 -18 -21 -15 -1 3 -3 10 -4 15 -1 6 -4 13 -5 18
-1 4 -2 10 -1 15 2 13 -11 7 -25 -10 -13 -17 -13 -17 -14 0 0 9 -7 17 -16 17
-9 0 -18 9 -21 20 -3 11 -9 20 -13 20 -8 0 3 -70 14 -88 3 -6 2 -13 -4 -17 -5
-3 -15 5 -22 19 -14 31 -24 33 -38 5 -9 -16 -14 -18 -26 -8 -8 6 -13 23 -12
37 2 14 -3 27 -11 30 -9 3 -11 -1 -7 -16 4 -11 2 -23 -4 -27 -6 -3 -8 -11 -5
-16 4 -5 1 -9 -4 -9 -6 0 -14 0 -18 0 -5 0 -8 4 -8 9 0 18 -13 22 -34 10 -27
-18 -38 -4 -16 21 10 11 15 26 11 35 -7 20 -26 10 -26 -13 0 -9 -12 -28 -26
-43 -23 -24 -29 -26 -47 -16 -15 9 -21 9 -24 0 -7 -20 -20 -15 -26 8 -4 14 3
33 19 54 32 43 30 51 -6 25 -16 -12 -34 -18 -40 -15 -14 8 -13 -28 1 -42 8 -8
8 -13 0 -17 -6 -4 -11 0 -11 8 0 9 -4 16 -10 16 -5 0 -10 -7 -10 -15 0 -23
-39 -12 -61 16 l-18 24 -9 -24 c-8 -22 -9 -22 -25 -7 -21 22 -82 16 -102 -10
-14 -18 -14 -18 -15 5 0 20 -4 22 -25 17 -28 -7 -33 7 -10 30 18 19 20 44 2
44 -18 0 -39 -38 -32 -61 7 -22 -13 -26 -21 -4 -5 11 -16 13 -45 9 -34 -6 -39
-4 -39 13 0 10 5 24 12 31 6 6 9 15 5 19 -4 4 -13 1 -19 -5 -18 -18 -28 -14
-29 11 -1 17 -2 18 -6 4 -2 -9 -18 -24 -34 -32 -28 -15 -30 -15 -41 10 l-11
25 -15 -22 -15 -21 -10 24 c-5 14 -11 19 -14 12 -8 -21 -23 -15 -23 10 -1 20
-2 21 -14 5 -12 -16 -15 -16 -47 0 -19 10 -36 27 -40 42 -6 24 -7 24 -15 5
-13 -29 -31 -28 -39 2 l-6 26 -15 -22 c-23 -32 -37 -26 -31 14 4 26 2 35 -9
35 -8 0 -14 -3 -14 -8 0 -4 -9 -13 -20 -20 -17 -10 -25 -9 -45 4 -24 16 -25
15 -25 -5 0 -25 -8 -26 -38 -5 -19 13 -26 13 -38 3 -12 -10 -16 -9 -21 10 -4
16 -12 22 -32 21 -43 -3 -51 -1 -51 15 0 8 -11 17 -24 21 -16 4 -23 11 -19 20
8 21 -10 17 -25 -6 -18 -30 -46 -26 -40 5 4 19 1 25 -11 25 -10 0 -22 -5 -29
-12 -9 -9 -15 -9 -24 0 -7 7 -20 12 -29 12 -9 0 -20 10 -23 23 -6 20 -7 21
-19 5 -9 -11 -21 -15 -36 -11 -20 5 -21 7 -6 23 11 12 13 20 6 25 -6 3 -14 -1
-17 -9 -10 -27 -44 -20 -44 9 0 14 -4 25 -9 25 -23 0 -41 -14 -41 -31 0 -38
-26 -17 -42 34 -12 37 -17 45 -18 27 -1 -21 -3 -22 -9 -7 -6 17 -8 17 -34 -3
-22 -18 -27 -19 -27 -6 0 9 5 16 10 16 6 0 10 7 10 15 0 8 5 15 11 15 5 0 7 5
4 10 -4 7 -16 1 -30 -15 -13 -14 -31 -25 -40 -25 -17 0 -20 16 -5 25 5 3 10
12 10 20 0 11 -6 11 -31 -3 -29 -17 -31 -16 -49 5 -10 13 -24 23 -30 23 -7 0
-30 18 -51 40 -39 40 -66 52 -55 25 3 -8 4 -15 2 -15 -3 0 -12 -3 -21 -6 -9
-4 -15 -3 -14 2 1 5 1 19 0 31 -1 20 -6 23 -39 21 -21 0 -47 4 -58 10 -18 10
-18 11 -2 17 10 4 15 11 12 17 -3 5 -11 5 -19 -2 -9 -8 -15 -8 -20 0 -8 13
-55 13 -55 0 0 -5 -4 -10 -10 -10 -5 0 -7 14 -3 33 5 26 3 30 -8 19 -20 -18
-29 -15 -29 12 0 26 -21 47 -28 28 -7 -22 -23 -12 -17 11 5 16 4 18 -4 8 -7
-12 -13 -12 -24 -3 -8 7 -22 10 -31 6 -9 -3 -16 -1 -16 5 0 6 4 11 10 11 12 0
33 40 25 48 -4 4 -11 -1 -17 -12 -13 -24 -74 -14 -103 18 -11 12 -26 21 -33
18 -7 -2 -12 1 -12 7 0 6 -7 11 -16 11 -13 0 -15 7 -10 34 7 36 -9 60 -20 32
-3 -9 -10 -13 -15 -11 -4 3 -18 -4 -30 -16 -21 -21 -23 -21 -36 -4 -17 24 -17
35 2 35 8 0 19 8 24 19 9 16 7 20 -12 23 -13 3 -29 -1 -35 -9 -21 -22 -42 -15
-53 17 -6 16 -14 29 -17 29 -20 -3 -34 4 -68 36 -20 19 -32 35 -25 35 6 0 11
10 11 23 -1 19 -2 20 -13 6 -11 -15 -77 -32 -77 -20 0 4 9 12 20 19 11 7 20
17 20 22 0 6 -8 5 -19 -2 -26 -16 -58 7 -40 28 9 11 7 14 -9 14 -11 0 -22 6
-25 13 -3 9 -7 9 -19 -1 -19 -15 -31 -2 -22 22 4 10 0 18 -11 22 -12 5 -15 14
-11 30 4 14 2 24 -4 24 -5 0 -10 -9 -10 -20 0 -11 -7 -20 -15 -20 -9 0 -15 9
-15 25 0 14 -3 25 -7 25 -5 0 -14 4 -22 9 -12 8 -12 12 -2 25 16 19 1 22 -17
4 -9 -9 -15 -9 -20 -2 -4 5 -22 16 -40 24 -23 9 -30 16 -23 23 16 16 13 30 -4
23 -8 -3 -15 -1 -15 4 0 6 -9 10 -19 10 -23 0 -40 22 -23 28 23 7 12 22 -17
22 -18 0 -31 -6 -35 -17 -6 -14 -9 -14 -22 6 -13 18 -18 20 -31 9 -14 -12 -15
-9 -9 24 5 30 4 38 -7 38 -8 0 -20 7 -27 15 -7 8 -20 15 -29 15 -10 0 -28 11
-41 25 -13 14 -32 25 -42 25 -28 0 -22 38 15 92 80 118 399 553 474 646 24 29
43 63 43 75 0 17 2 19 10 7 8 -12 10 -12 16 4 4 11 1 22 -7 28 -10 6 -7 7 10
3 21 -6 23 -4 19 13 -4 13 -2 19 6 16 6 -2 18 5 26 17 8 12 27 37 43 57 31 40
34 54 10 45 -16 -6 -16 -5 -5 10 8 9 11 21 7 26 -3 7 0 8 9 5 8 -3 16 -13 18
-21 2 -11 8 -7 18 13 8 16 18 31 22 34 4 3 3 12 -2 20 -8 13 -12 12 -24 -5
-13 -17 -15 -18 -16 -3 0 9 5 20 10 23 6 3 10 15 10 26 0 11 7 19 16 19 11 0
15 -6 11 -20 -7 -27 10 -36 18 -9 4 12 1 32 -6 45 -11 22 -10 26 9 40 12 8 22
23 22 33 0 10 9 21 20 24 16 4 20 14 20 51 0 25 -2 46 -4 46 -2 0 -13 3 -23 6
-15 6 -16 4 -6 -7 19 -19 16 -47 -6 -61 -10 -6 -17 -18 -14 -25 3 -7 -2 -13
-10 -13 -22 0 -19 51 4 57 25 7 24 33 -1 33 -25 0 -17 23 16 40 25 14 32 30
13 30 -16 0 -69 -57 -69 -74 0 -9 -12 -21 -26 -26 -14 -6 -22 -15 -19 -21 4
-6 13 -8 20 -5 7 2 16 -2 19 -10 5 -12 -1 -15 -27 -12 -56 5 -42 34 80 168 92
99 113 125 113 135 0 6 24 35 53 66 28 31 63 70 77 87 42 49 203 235 230 264
54 57 60 65 60 76 0 7 6 12 14 12 7 0 26 16 41 36 15 20 57 66 91 102 38 38
64 74 64 86 0 17 2 18 10 6 7 -12 12 -12 21 -3 10 10 6 29 -15 90 -15 43 -34
101 -43 128 -8 28 -19 59 -23 70 -23 57 -61 189 -52 180 7 -7 71 -162 77 -185
2 -8 4 -19 4 -23 1 -5 6 -5 13 -1 6 4 8 3 5 -3 -9 -14 22 -105 39 -119 8 -6
14 -16 14 -23 0 -6 6 -11 13 -12 6 0 5 -3 -4 -7 -14 -6 -15 -9 -3 -20 9 -8 14
-9 14 -2 0 7 8 9 20 5 17 -5 20 -2 20 25 0 29 -3 32 -24 28 -16 -3 -27 0 -30
9 -10 25 -7 29 24 31 24 2 30 -2 30 -18 0 -13 7 -20 20 -20 13 0 20 7 20 20 0
16 7 20 31 20 17 0 28 -4 24 -10 -3 -5 -13 -10 -21 -10 -8 0 -14 -4 -14 -10 0
-11 15 -12 48 -4 14 4 21 12 18 20 -3 9 2 14 14 14 15 0 20 7 20 26 0 17 6 28
20 31 11 3 20 9 20 13 0 5 9 6 21 3 12 -3 24 0 29 6 4 8 38 13 93 14 67 2 89
6 106 21 20 18 24 18 188 -4 93 -12 206 -26 253 -30 47 -5 121 -13 165 -19
100 -12 165 -14 165 -2 0 4 -12 8 -27 9 -68 1 -179 15 -190 24 -7 5 -22 9 -35
8 -13 -1 -39 -1 -58 0 -32 2 -33 3 -10 9 23 7 22 8 -14 14 -22 3 -65 4 -97 0
-32 -3 -66 -2 -76 2 -10 4 -52 9 -93 11 -41 3 -79 9 -85 15 -7 7 -2 9 15 6 14
-2 19 -2 13 0 -16 5 -17 28 -2 54 8 16 13 18 25 8 11 -9 14 -8 14 4 0 8 6 18
13 21 6 3 2 3 -11 0 -24 -6 -24 -4 5 45 4 7 73 -33 73 -41 0 -5 5 -8 10 -8 6
0 10 18 10 41 0 37 -2 40 -22 35 -13 -3 -17 -3 -10 0 6 3 12 23 12 45 0 28 4
39 15 39 11 0 15 11 15 40 0 29 4 40 15 40 10 0 15 11 16 38 1 20 4 51 8 67
l7 30 7 -27 c4 -16 14 -28 22 -28 17 0 21 35 5 45 -5 3 -10 13 -10 21 0 8 5
14 10 14 6 0 10 -7 10 -15 0 -8 4 -15 9 -15 11 0 21 35 21 77 0 22 5 33 18 36
14 3 13 6 -8 14 l-25 11 28 7 c20 5 33 3 46 -9 10 -9 21 -16 24 -16 12 0 7 28
-5 33 -10 3 -10 7 1 20 9 11 10 17 2 17 -6 0 -11 4 -11 9 0 5 20 6 45 3 42 -4
47 -2 86 37 23 22 37 41 32 41 -5 0 -29 17 -53 38 -94 82 -134 122 -123 122 6
0 15 -5 18 -10 4 -6 10 -8 14 -5 5 2 20 -7 34 -21 14 -14 31 -23 37 -19 6 3
10 -3 10 -14 0 -18 6 -21 43 -21 23 0 37 -4 30 -8 -8 -5 -9 -13 -3 -22 6 -9
10 -10 10 -3 0 8 12 7 40 -4 22 -9 40 -22 40 -30 0 -8 6 -13 13 -10 6 2 28 -2
47 -9 19 -7 48 -15 63 -18 15 -4 25 -11 22 -16 -3 -6 2 -10 13 -10 10 0 26 -8
35 -18 11 -12 27 -17 45 -14 18 2 33 -2 41 -12 8 -9 18 -16 23 -16 5 0 21 -11
36 -25 15 -14 35 -25 44 -25 10 0 18 -6 18 -14 0 -9 8 -12 26 -8 24 4 25 2 19
-18 -6 -20 -4 -22 14 -17 14 3 21 0 21 -9 0 -8 9 -14 20 -14 17 0 19 -3 11
-17 -5 -10 -19 -28 -31 -41 -34 -36 -71 -126 -78 -194 -7 -63 -5 -72 43 -193
13 -32 16 -75 5 -75 -6 0 -10 5 -10 12 0 6 -3 9 -6 6 -3 -4 0 -17 7 -30 7 -12
14 -30 15 -38 8 -75 77 -260 96 -260 4 0 8 -6 8 -14 0 -19 59 -91 75 -91 8 0
17 -4 21 -8 4 -4 20 -7 35 -7 21 0 26 -4 23 -17 -6 -22 76 -110 126 -139 19
-10 37 -22 40 -25 19 -23 153 -59 223 -59 32 0 38 -3 27 -10 -11 -8 -7 -9 15
-4 17 3 37 8 45 11 8 3 45 7 81 9 64 3 123 19 199 51 70 30 141 66 145 74 3 4
27 18 53 31 26 12 61 33 78 45 17 13 34 23 38 23 27 0 216 177 216 202 0 4 14
29 30 55 17 26 30 57 30 70 0 76 45 -40 110 -282 57 -211 113 -455 106 -462
-1 -2 -23 15 -48 37 -26 22 -51 40 -57 40 -15 0 -33 -44 -66 -155 -32 -108
-86 -227 -154 -338 -62 -101 -87 -131 -103 -124 -15 6 -227 174 -278 221 -66
60 -133 106 -154 106 -14 0 -77 -57 -185 -166 -91 -91 -191 -186 -222 -210
l-57 -44 -50 53 c-84 87 -157 181 -246 316 -47 71 -86 132 -86 136 0 12 -33
34 -52 35 -14 0 -51 -28 -183 -138 -43 -37 -143 -100 -148 -95 -10 9 4 254 19
333 35 192 62 310 110 480 52 184 102 415 75 345 -8 -19 -8 -19 -20 3 -15 27
-28 28 -36 2 -4 -11 -11 -18 -16 -15 -5 4 -9 0 -9 -8 0 -8 -11 -25 -23 -39
-13 -14 -29 -45 -34 -69 -21 -83 -33 -151 -33 -182 0 -37 -13 -62 -27 -54 -6
4 -15 -13 -22 -36 -7 -23 -17 -52 -23 -65 -10 -18 -9 -25 1 -31 9 -6 10 -11 2
-15 -6 -4 -11 -20 -11 -37 0 -18 -5 -29 -14 -29 -8 0 -16 -15 -19 -35 -6 -36
-27 -65 -46 -65 -6 0 -11 -4 -11 -10 0 -5 8 -10 18 -10 14 0 15 -2 2 -10 -13
-9 -13 -11 0 -21 43 -31 -80 30 -134 67 -29 19 -53 29 -55 23 -5 -15 61 -74
134 -120 33 -21 65 -43 71 -48 17 -14 29 -162 14 -171 -6 -4 -13 -29 -15 -55
-2 -26 -9 -53 -15 -59 -5 -5 -10 -22 -10 -37 0 -16 -10 -37 -25 -50 -13 -13
-25 -31 -25 -39 0 -9 -5 -21 -10 -26 -6 -6 -7 -25 -4 -42 6 -31 8 -32 58 -32
54 0 96 -20 96 -46 0 -8 4 -14 9 -14 9 0 51 -120 51 -146 0 -8 -11 -27 -25
-41 -14 -16 -21 -31 -16 -37 4 -6 16 -42 25 -80 9 -38 25 -85 36 -105 19 -39
85 -102 141 -137 37 -22 40 -43 9 -77 -11 -11 -17 -23 -15 -27 3 -4 -2 -13
-10 -20 -18 -15 -20 -40 -2 -41 6 0 2 -4 -11 -9 -12 -5 -25 -18 -29 -27 -4
-10 -10 -20 -13 -23 -12 -8 -22 -50 -12 -50 5 0 15 11 22 25 15 28 46 36 36 9
-3 -9 -6 -20 -6 -25 0 -6 -4 -7 -10 -4 -16 10 -12 -51 5 -65 19 -16 19 -80 0
-143 -15 -51 -24 -225 -12 -244 4 -6 1 -14 -5 -16 -8 -3 -5 -6 5 -6 13 -1 17
-6 12 -20 -3 -12 0 -21 10 -25 8 -3 15 -12 15 -20 0 -9 26 -42 58 -74 32 -33
62 -68 67 -78 5 -12 9 -15 12 -6 8 21 23 13 23 -13 0 -14 5 -25 10 -25 6 0 10
10 10 23 l1 22 13 -24 c8 -14 16 -19 20 -13 3 5 15 8 26 5 15 -4 18 -11 14
-37 -4 -24 -3 -27 5 -15 26 41 102 28 93 -16 -2 -14 2 -24 11 -28 17 -6 44 19
33 30 -4 4 -11 1 -15 -6 -6 -10 -10 -10 -16 -1 -4 6 2 20 14 31 20 19 21 19
33 0 9 -15 19 -19 37 -14 17 4 28 1 37 -12 13 -17 14 -16 20 11 4 20 12 30 25
31 15 1 19 -3 14 -18 -4 -10 -2 -19 4 -19 6 0 14 -12 17 -26 4 -16 10 -22 16
-16 6 6 6 17 -2 31 -9 17 -8 22 5 27 8 3 15 12 15 20 0 8 4 14 9 14 19 0 22
-20 7 -42 -27 -38 -18 -56 10 -23 15 17 23 24 20 18 -5 -9 0 -13 13 -13 11 0
22 8 24 17 3 12 7 8 12 -14 8 -36 19 -42 29 -17 3 8 10 13 15 10 5 -3 12 5 15
19 7 29 -2 75 -15 75 -5 0 -6 6 -3 14 3 8 1 17 -5 21 -18 10 -13 32 9 38 16 4
18 1 14 -23 -4 -15 -1 -31 5 -34 7 -4 11 1 11 13 0 12 4 21 9 21 19 0 22 -20
7 -42 -19 -27 -21 -51 -3 -46 6 3 12 11 12 19 0 8 4 17 9 21 5 3 9 20 9 37 0
32 16 45 18 14 0 -14 3 -13 12 5 7 15 17 22 28 19 10 -3 27 4 39 15 l22 21 22
-27 c16 -19 25 -23 36 -16 13 8 11 11 -7 16 -13 4 -23 12 -23 19 0 24 -48 27
-71 4 -11 -11 -24 -18 -27 -14 -4 4 4 15 16 26 13 10 25 24 26 31 10 49 19 66
32 61 8 -3 14 -12 14 -20 0 -9 -6 -13 -15 -10 -12 5 -12 2 -3 -18 6 -14 19
-25 30 -25 10 0 18 -6 18 -13 0 -8 11 -20 25 -27 26 -14 33 -34 15 -45 -16
-10 -12 -47 8 -61 22 -18 32 -17 32 1 0 9 -6 12 -17 8 -14 -5 -15 -1 -9 36 9
56 -1 96 -20 80 -11 -9 -14 -6 -14 21 0 26 -3 30 -13 21 -17 -14 -27 -4 -27
26 0 27 24 31 39 6 10 -16 11 -16 17 4 7 26 24 31 24 7 0 -13 7 -15 31 -10 25
5 32 2 36 -14 3 -11 11 -20 18 -20 20 0 29 -39 14 -66 -14 -27 -29 -32 -29 -9
0 8 -9 19 -20 25 -11 6 -20 17 -20 25 0 7 -4 16 -9 19 -4 3 -8 -19 -8 -49 0
-42 5 -59 20 -72 19 -17 19 -17 13 2 -5 17 -1 21 17 21 12 0 25 -4 28 -9 12
-18 42 2 36 23 -3 11 -1 20 4 20 5 0 9 -4 9 -10 0 -5 5 -10 10 -10 6 0 10 6
10 14 0 8 5 18 10 21 6 4 10 -11 10 -37 0 -31 -3 -39 -10 -28 -11 18 -24 6
-35 -30 -6 -20 -5 -23 6 -13 18 18 27 16 32 -4 3 -16 5 -16 12 2 5 11 17 27
26 36 14 12 15 19 7 27 -14 14 1 16 21 3 8 -5 10 -14 6 -21 -4 -7 -2 -16 6
-21 8 -5 12 -22 11 -44 -2 -20 1 -35 7 -35 6 0 12 12 12 28 l1 27 7 -30 c5
-23 12 -29 29 -28 12 2 22 -3 22 -9 0 -7 6 -4 13 6 10 14 23 17 55 13 43 -5
48 -2 33 22 -6 9 -11 10 -15 2 -10 -15 -26 -14 -26 3 0 15 52 29 60 16 3 -4
19 -6 35 -3 62 9 80 8 95 -6 13 -13 15 -12 18 8 3 18 8 22 27 17 15 -4 25 -1
29 10 3 8 10 13 15 9 5 -3 12 -1 16 5 3 5 12 10 20 10 22 0 117 100 111 116
-4 11 -1 14 12 10 15 -5 18 0 19 30 1 19 7 43 15 52 8 10 15 47 17 94 2 64 -3
90 -28 164 -17 49 -31 96 -31 106 0 10 -5 18 -10 18 -7 0 -7 6 -1 18 7 13 7
22 -1 30 -8 8 -7 20 4 43 15 30 16 31 27 11 14 -26 14 -33 0 -30 -6 2 -13 -2
-16 -9 -3 -7 3 -9 17 -6 18 5 20 10 14 37 -3 17 -11 34 -16 37 -5 3 -6 13 -2
22 3 9 2 17 -4 17 -5 0 -12 -7 -16 -15 -9 -24 -26 -17 -26 10 0 27 -27 49 -72
60 -16 4 -28 12 -28 17 0 6 7 8 15 5 20 -8 26 5 11 25 -12 16 -15 16 -52 -2
-48 -25 -72 -27 -54 -5 7 8 17 15 22 15 6 0 40 20 77 44 122 82 171 167 171
299 0 44 -3 57 -15 57 -8 0 -15 -3 -15 -7 0 -5 -19 -29 -43 -54 -46 -50 -108
-93 -201 -139 -34 -17 -68 -35 -76 -39 -52 -29 -73 -36 -77 -23 -8 21 -32 13
-39 -14 -6 -22 -36 -44 -69 -49 -5 0 -30 -4 -55 -8 -25 -3 -75 -9 -112 -12
-57 -5 -68 -3 -68 10 0 8 7 15 15 15 8 0 15 5 15 10 0 6 -7 10 -15 10 -19 0
-20 26 -2 33 8 3 20 1 28 -4 37 -23 43 -7 16 48 -6 13 -7 26 -4 29 8 8 -53 64
-70 64 -7 0 -13 5 -13 10 0 6 -7 10 -16 10 -8 0 -12 5 -9 10 3 6 -2 10 -12 10
-11 0 -24 5 -31 12 -9 9 -15 9 -24 0 -18 -18 -27 -15 -21 8 6 23 -15 28 -23 5
-3 -8 -21 -19 -40 -25 -26 -9 -34 -17 -34 -36 0 -21 -4 -23 -24 -18 -20 5 -26
-1 -45 -38 -11 -24 -21 -35 -21 -26 0 11 -5 15 -14 12 -8 -3 -12 -12 -9 -20 3
-9 -2 -14 -14 -14 -25 0 -87 -46 -74 -55 14 -8 31 3 31 21 0 8 5 14 10 14 29
0 -9 -49 -57 -72 -25 -13 -30 -13 -26 -2 3 8 9 14 15 14 5 0 6 5 3 10 -9 15
-25 12 -25 -5 0 -8 -6 -15 -14 -15 -8 0 -16 -6 -19 -12 -3 -10 -8 -10 -18 -2
-8 5 -33 10 -57 9 -32 -1 -42 2 -38 12 3 7 -1 13 -9 13 -8 0 -18 7 -23 16 -6
12 -18 15 -35 12 -15 -3 -24 -1 -21 3 9 14 -6 10 -22 -6 -14 -13 -12 -15 13
-15 49 0 92 -53 53 -63 -11 -3 -18 0 -17 6 1 6 -9 13 -22 15 -14 2 -35 11 -47
19 -13 8 -28 12 -34 8 -10 -6 -124 29 -145 45 -5 4 -23 10 -39 14 -17 4 -42
16 -57 27 -15 10 -34 19 -42 19 -7 0 -24 9 -37 20 -13 11 -26 20 -30 20 -7 0
-96 86 -122 118 -25 30 -32 66 -16 79 7 6 36 18 63 26 28 8 83 31 123 52 87
44 70 53 205 -110 113 -136 245 -268 287 -285 62 -26 170 31 330 175 94 84
132 109 158 101 10 -3 59 -37 110 -74 121 -89 189 -129 233 -136 30 -5 42 -1
77 26 70 56 195 231 265 373 46 93 72 125 102 125 12 0 50 -18 83 -40 l62 -40
14 34 c7 18 17 42 20 54 5 16 24 27 69 41 59 18 62 20 60 49 -3 33 -39 102
-54 102 -5 0 -9 7 -9 16 0 9 -9 32 -21 50 -11 19 -18 34 -15 34 3 0 -4 21 -16
48 -11 26 -33 82 -48 124 l-27 76 46 18 c53 19 178 105 204 141 29 38 15 46
-23 14 -57 -46 -152 -92 -167 -79 -7 6 -13 15 -13 20 0 6 7 5 15 -2 12 -10 15
-10 15 3 0 9 -9 19 -20 22 -11 3 -20 15 -20 26 0 10 -9 27 -20 36 -11 10 -20
27 -20 40 0 12 -6 28 -13 35 -7 7 -12 35 -12 61 0 29 -5 51 -13 56 -13 7 -26
48 -39 113 -3 15 -13 30 -23 33 -12 4 -16 12 -13 25 4 14 0 20 -11 20 -9 0
-16 8 -16 18 0 10 -5 23 -12 30 -8 8 -7 26 4 74 9 35 17 79 17 99 1 31 -2 38
-24 43 -27 7 -34 26 -10 26 13 0 12 4 -4 21 -15 16 -28 20 -55 17 -40 -4 -42
-1 -24 38 l13 27 6 -24 7 -24 1 23 c1 13 -5 30 -13 37 -7 8 -16 42 -20 77 -7
62 -27 122 -68 206 -18 37 -19 45 -7 53 12 8 12 10 -1 19 -12 8 -11 10 8 10
12 0 22 6 22 13 0 8 18 22 40 32 22 10 40 22 40 27 0 4 14 8 30 8 17 0 30 5
30 10 0 6 11 10 24 10 14 0 28 5 31 10 3 6 15 10 26 10 10 0 19 7 19 15 0 13
28 34 55 42 6 1 37 10 70 19 33 9 70 25 82 36 12 11 26 17 31 14 6 -3 8 2 6
11 -3 13 6 23 35 37 21 10 44 15 51 11 6 -4 21 4 33 17 12 13 35 30 50 38 16
8 38 24 50 35 12 12 24 20 27 18 2 -2 -10 -17 -27 -33z m-5624 -23 c16 -20 26
-77 13 -77 -6 0 -18 -3 -26 -6 -12 -4 -15 -2 -11 9 5 10 -1 15 -19 15 -22 0
-26 -5 -26 -29 0 -39 -16 -37 -24 2 -9 47 -8 53 14 77 23 25 62 29 79 9z
m8333 -29 c11 -18 10 -38 -1 -38 -17 0 -81 42 -81 52 0 15 71 2 82 -14z
m-8504 -41 c6 -6 14 -26 18 -42 l7 -30 -25 29 -25 30 -27 -27 -26 -26 0 27 c0
16 5 33 12 40 16 16 53 15 66 -1z m132 -17 c0 -5 -4 -10 -10 -10 -5 0 -10 5
-10 10 0 6 5 10 10 10 6 0 10 -4 10 -10z m295 -77 c-8 -34 -23 -53 -41 -53 -8
0 -14 -4 -14 -8 0 -10 -85 -52 -106 -52 -8 0 -17 6 -20 14 -8 21 15 59 32 52
8 -3 14 1 14 10 0 8 5 12 11 9 6 -4 16 0 22 9 15 21 55 41 86 44 21 2 22 -1
16 -25z m-310 -3 c3 -5 1 -10 -4 -10 -6 0 -11 5 -11 10 0 6 2 10 4 10 3 0 8
-4 11 -10z m2750 -20 c3 -5 1 -10 -4 -10 -6 0 -11 5 -11 10 0 6 2 10 4 10 3 0
8 -4 11 -10z m-2658 -42 c-3 -8 -6 -5 -6 6 -1 11 2 17 5 13 3 -3 4 -12 1 -19z
m2580 -54 c-3 -3 -12 -4 -19 -1 -8 3 -5 6 6 6 11 1 17 -2 13 -5z m6073 -49 c7
-14 21 -25 31 -25 10 0 26 -8 36 -18 10 -11 33 -25 51 -33 17 -8 32 -20 32
-28 0 -7 6 -11 14 -8 8 3 31 -11 52 -34 22 -21 45 -39 52 -39 6 0 12 -5 12
-10 0 -6 11 -15 24 -20 13 -5 27 -18 30 -28 6 -17 37 -34 50 -29 3 1 15 -8 28
-19 13 -12 33 -25 46 -29 18 -5 22 -13 20 -33 -6 -49 -23 -43 -161 56 -18 13
-44 26 -59 29 -16 3 -28 11 -28 17 0 6 -12 17 -27 24 -16 6 -48 25 -73 42 -25
16 -59 37 -77 45 -17 8 -34 19 -37 24 -3 5 -22 12 -41 15 -31 6 -35 11 -35 37
0 32 25 89 39 89 4 0 14 -11 21 -25z m-8873 -66 c1 -11 -5 -23 -13 -26 -7 -3
-12 -9 -9 -13 3 -5 -4 -6 -15 -3 -11 3 -20 0 -20 -6 0 -6 -9 -11 -20 -11 -11
0 -20 -4 -20 -9 0 -4 -28 -18 -61 -31 -50 -18 -63 -20 -70 -9 -12 19 -11 39 1
39 6 0 10 7 10 15 0 8 9 15 20 15 11 0 20 4 20 9 0 8 22 15 120 42 44 12 56
10 57 -12z m-287 -92 c0 -10 -8 -21 -17 -24 -10 -4 -21 -11 -25 -17 -5 -7 -8
-7 -8 2 0 20 -17 14 -23 -9 -3 -11 -15 -23 -26 -26 -12 -3 -21 -11 -21 -17 0
-6 -12 -13 -26 -14 -14 -1 -46 -15 -71 -32 -24 -16 -55 -30 -69 -30 -13 0 -27
-7 -30 -15 -7 -18 -50 -20 -60 -3 -4 6 -3 8 4 4 6 -3 21 4 34 17 13 13 46 34
75 48 29 13 52 29 53 34 0 17 64 62 97 69 19 5 33 15 36 28 4 13 11 19 21 15
8 -3 17 1 20 10 6 14 8 14 21 -3 8 -10 15 -27 15 -37z m2963 -12 c-7 -21 -13
-19 -13 6 0 11 4 18 10 14 5 -3 7 -12 3 -20z m3744 -57 c-3 -7 -5 -2 -5 12 0
14 2 19 5 13 2 -7 2 -19 0 -25z m-4158 -78 c0 -10 -3 -8 -9 5 -12 27 -12 43 0
25 5 -8 9 -22 9 -30z m-2979 -89 c0 -5 -7 -14 -15 -21 -12 -10 -15 -10 -15 2
0 8 3 18 7 21 9 10 23 9 23 -2z m10170 -48 c0 -7 -7 -13 -15 -13 -8 0 -15 5
-15 11 0 5 -4 7 -10 4 -11 -7 -14 28 -3 38 9 9 43 -22 43 -40z m-10230 16 c0
-11 -4 -17 -10 -14 -5 3 -10 13 -10 21 0 8 5 14 10 14 6 0 10 -9 10 -21z
m3087 -41 c-3 -8 -6 -5 -6 6 -1 11 2 17 5 13 3 -3 4 -12 1 -19z m4024 -41
c-10 -9 -11 -8 -5 6 3 10 9 15 12 12 3 -3 0 -11 -7 -18z m-3976 -95 c4 -21 3
-32 -4 -32 -6 0 -11 7 -11 15 0 23 0 22 -15 66 -8 23 -15 47 -14 53 1 16 35
-64 44 -102z m2774 11 c0 -29 -2 -33 -8 -18 -7 18 -4 55 5 55 2 0 4 -17 3 -37z
m1677 -30 c-10 -10 -19 5 -10 18 6 11 8 11 12 0 2 -7 1 -15 -2 -18z m-3229
-25 c-3 -8 -6 -5 -6 6 -1 11 2 17 5 13 3 -3 4 -12 1 -19z m3058 3 c3 -5 1 -12
-5 -16 -5 -3 -10 1 -10 9 0 18 6 21 15 7z m-4560 -29 c-3 -3 -11 0 -18 7 -9
10 -8 11 6 5 10 -3 15 -9 12 -12z m7150 -72 c3 -5 -1 -10 -10 -10 -9 0 -13 5
-10 10 3 6 8 10 10 10 2 0 7 -4 10 -10z m-8438 -312 c-3 -7 -5 -2 -5 12 0 14
2 19 5 13 2 -7 2 -19 0 -25z m6901 -824 c-14 -29 -28 -31 -28 -4 0 11 5 20 12
20 9 0 9 3 0 12 -20 20 -13 32 7 14 16 -15 18 -22 9 -42z m-48 10 c0 -8 -5
-12 -10 -9 -6 4 -8 11 -5 16 9 14 15 11 15 -7z m110 -63 c11 -26 11 -26 -7 -6
-10 11 -25 29 -33 39 -14 18 -14 18 7 6 12 -8 27 -25 33 -39z m-50 9 c0 -5 -4
-10 -10 -10 -5 0 -10 5 -10 10 0 6 5 10 10 10 6 0 10 -4 10 -10z m-33 -17 c-4
-3 -2 -12 5 -20 6 -7 8 -17 4 -20 -4 -4 -10 -3 -14 3 -4 6 -15 13 -24 17 -27
10 -21 27 9 27 14 0 23 -3 20 -7z m-6697 -23 c0 -5 -7 -10 -15 -10 -8 0 -15 5
-15 10 0 6 7 10 15 10 8 0 15 -4 15 -10z m6821 -22 c11 -21 11 -22 -4 -9 -10
7 -17 17 -17 22 0 15 9 10 21 -13z m-6861 -12 c0 -3 -4 -8 -10 -11 -5 -3 -10
-1 -10 4 0 6 5 11 10 11 6 0 10 -2 10 -4z m130 -6 c0 -5 -4 -10 -9 -10 -6 0
-13 5 -16 10 -3 6 1 10 9 10 9 0 16 -4 16 -10z m6735 -28 c-3 -3 -11 0 -18 7
-9 10 -8 11 6 5 10 -3 15 -9 12 -12z m-6897 -4 c-2 -6 -10 -14 -16 -16 -7 -2
-10 2 -6 12 7 18 28 22 22 4z m112 8 c0 -11 -19 -15 -25 -6 -3 5 1 10 9 10 9
0 16 -2 16 -4z m6595 -16 c3 -5 -1 -10 -9 -10 -9 0 -16 5 -16 10 0 6 4 10 9
10 6 0 13 -4 16 -10z m245 -10 c13 -11 21 -23 18 -26 -7 -6 -48 27 -48 38 0
12 5 10 30 -12z m-6850 -48 c-8 -3 -20 -12 -27 -21 -10 -13 -12 -13 -13 -2 0
17 32 41 44 33 6 -3 3 -8 -4 -10z m6919 -28 c24 -41 12 -37 -19 6 -12 17 -17
30 -12 30 6 0 19 -16 31 -36z m-219 16 c0 -5 -4 -10 -9 -10 -6 0 -13 5 -16 10
-3 6 1 10 9 10 9 0 16 -4 16 -10z m-6733 -76 c-3 -3 -12 -4 -19 -1 -8 3 -5 6
6 6 11 1 17 -2 13 -5z m3623 -201 c0 -10 -4 -14 -8 -8 -4 6 -11 13 -16 18 -5
4 -2 7 7 7 10 0 17 -8 17 -17z m-223 -29 c-3 -3 -12 -4 -19 -1 -8 3 -5 6 6 6
11 1 17 -2 13 -5z m-74 -64 c-3 -11 -9 -20 -13 -20 -5 0 -6 9 -3 20 3 11 9 20
13 20 5 0 6 -9 3 -20z m247 -30 c0 -5 -18 -10 -40 -10 -22 0 -40 5 -40 10 0 6
18 10 40 10 22 0 40 -4 40 -10z m3754 -106 c5 -14 4 -15 -9 -4 -17 14 -19 20
-6 20 5 0 12 -7 15 -16z m-4734 -13 c0 -6 -4 -13 -10 -16 -5 -3 -10 1 -10 9 0
9 5 16 10 16 6 0 10 -4 10 -9z m1540 -37 c0 -8 -5 -12 -10 -9 -6 4 -8 11 -5
16 9 14 15 11 15 -7z m80 -44 c0 -5 -4 -10 -10 -10 -5 0 -10 5 -10 10 0 6 5
10 10 10 6 0 10 -4 10 -10z m40 -46 c0 -8 -4 -12 -10 -9 -5 3 -10 10 -10 16 0
5 5 9 10 9 6 0 10 -7 10 -16z m67 -82 l1 -27 -19 24 c-24 29 -24 40 -1 35 10
-3 18 -16 19 -32z m-107 -13 c0 -4 -6 -12 -14 -18 -17 -14 -61 3 -51 20 7 10
65 9 65 -2z m-1356 -144 c68 -30 80 -47 47 -65 -48 -25 -120 3 -153 62 -21 37
-21 38 -3 58 l19 21 12 -24 c8 -14 38 -35 78 -52z m1246 45 c13 -25 5 -57 -23
-87 -27 -30 -96 -32 -121 -4 -22 25 -16 34 48 76 59 40 81 43 96 15z m35 -132
c6 -13 24 -30 40 -38 25 -13 31 -22 33 -58 4 -51 -12 -74 -72 -103 -41 -20
-86 -17 -86 6 0 7 7 26 15 41 18 34 19 64 4 64 -18 0 -58 36 -51 46 4 5 26 18
50 28 23 11 42 23 42 28 0 16 15 8 25 -14z m-1428 -44 c24 -20 43 -42 43 -50
0 -8 4 -22 9 -32 5 -9 18 -36 30 -59 l21 -42 -54 4 c-91 5 -136 51 -154 155
-9 48 -9 66 0 71 17 11 57 -7 105 -47z m-3282 -164 c3 -5 1 -10 -4 -10 -6 0
-11 5 -11 10 0 6 2 10 4 10 3 0 8 -4 11 -10z m3949 -59 c4 -5 3 -17 -1 -27 -6
-16 -7 -16 -20 2 -7 10 -13 21 -13 26 0 11 27 10 34 -1z m-65 -23 c1 10 5 10
17 -2 19 -19 10 -76 -12 -76 -19 0 -18 26 1 34 21 8 19 23 -5 29 -11 3 -20 13
-19 24 0 16 1 16 9 -2 5 -11 9 -14 9 -7z m-26 -69 c3 -13 1 -19 -6 -16 -15 5
-22 37 -9 37 5 0 12 -9 15 -21z m-93 1 c0 -5 -2 -10 -4 -10 -3 0 -8 5 -11 10
-3 6 -1 10 4 10 6 0 11 -4 11 -10z m396 -28 c-9 -9 -37 8 -31 18 5 8 11 7 21
-1 8 -6 12 -14 10 -17z m-409 -83 c-25 -44 -42 -51 -34 -13 2 14 -2 31 -10 40
-8 8 -10 14 -4 14 5 0 17 -7 25 -16 15 -14 16 -13 16 12 0 22 2 24 15 14 13
-10 12 -17 -8 -51z m640 39 c-3 -8 -6 -5 -6 6 -1 11 2 17 5 13 3 -3 4 -12 1
-19z m87 -33 c-4 -8 -8 -15 -10 -15 -2 0 -4 7 -4 15 0 8 4 15 10 15 5 0 7 -7
4 -15z m-54 -22 c0 -19 -3 -24 -10 -17 -6 6 -8 18 -4 27 9 24 14 21 14 -10z
m-630 -15 c0 -30 -1 -31 -17 -16 -13 14 -14 20 -3 32 18 22 20 20 20 -16z
m-360 13 c0 -6 -4 -13 -10 -16 -5 -3 -10 1 -10 9 0 9 5 16 10 16 6 0 10 -4 10
-9z m-4051 -128 c37 -34 47 -40 84 -52 20 -7 37 -17 37 -22 0 -5 7 -9 15 -9 8
0 15 -5 15 -11 0 -5 16 -17 35 -25 19 -8 35 -20 35 -28 0 -7 16 -21 35 -32 19
-10 35 -22 35 -26 0 -5 18 -16 39 -25 22 -9 44 -27 50 -40 6 -13 17 -23 25
-23 8 0 19 -6 23 -13 4 -7 22 -23 38 -36 60 -45 135 -116 135 -126 0 -6 18
-21 39 -33 22 -13 43 -31 46 -42 10 -31 81 -100 103 -100 16 0 22 -9 27 -40 4
-22 11 -40 16 -40 5 0 9 -20 9 -45 l0 -46 -37 7 c-21 4 -40 10 -43 15 -3 4
-22 10 -43 14 -20 4 -37 12 -37 19 0 6 -21 18 -47 26 -27 7 -54 20 -61 27 -7
7 -22 13 -33 13 -11 0 -36 16 -55 35 -19 20 -39 33 -43 30 -5 -2 -25 13 -45
35 -20 22 -43 40 -50 40 -8 0 -32 18 -54 39 -22 22 -53 48 -69 58 -15 9 -32
23 -36 30 -4 7 -18 13 -30 14 -12 0 -16 3 -9 6 17 7 5 23 -19 23 -10 0 -19 5
-19 10 0 6 -25 34 -55 63 -30 28 -55 57 -55 64 0 14 -39 38 -41 26 0 -4 -5 5
-10 22 -5 19 -5 31 2 36 6 3 -7 20 -30 38 -23 18 -41 41 -41 52 0 11 -5 28
-12 38 -9 14 -8 22 3 34 20 23 103 22 128 0z m7481 -333 c0 -5 -7 -7 -15 -4
-8 4 -15 8 -15 10 0 2 7 4 15 4 8 0 15 -4 15 -10z m-6603 -452 c-2 -13 -4 -3
-4 22 0 25 2 35 4 23 2 -13 2 -33 0 -45z m5488 -88 c3 -5 1 -10 -4 -10 -6 0
-11 5 -11 10 0 6 2 10 4 10 3 0 8 -4 11 -10z m-195 -60 c0 -5 -2 -10 -4 -10
-3 0 -8 5 -11 10 -3 6 -1 10 4 10 6 0 11 -4 11 -10z m-2677 -120 c3 -11 1 -20
-4 -20 -5 0 -9 9 -9 20 0 11 2 20 4 20 2 0 6 -9 9 -20z"/>
<path d="M2076 9944 c-39 -54 -97 -156 -92 -162 3 -3 7 -3 9 -1 13 17 79 121
96 152 24 42 15 49 -13 11z"/>
<path d="M2495 9680 c-3 -5 -1 -10 4 -10 6 0 11 5 11 10 0 6 -2 10 -4 10 -3 0
-8 -4 -11 -10z"/>
<path d="M10480 9657 c0 -19 39 -81 46 -74 3 2 -7 24 -21 48 -15 27 -25 37
-25 26z"/>
<path d="M2476 9645 c-9 -26 -7 -32 5 -12 6 10 9 21 6 23 -2 3 -7 -2 -11 -11z"/>
<path d="M10126 9617 c3 -10 9 -15 12 -12 3 3 0 11 -7 18 -10 9 -11 8 -5 -6z"/>
<path d="M10150 9573 c0 -4 5 -15 10 -23 8 -13 10 -13 10 2 0 9 -4 20 -10 23
-5 3 -10 3 -10 -2z"/>
<path d="M1781 9459 c-7 -12 -10 -23 -8 -26 3 -3 11 5 17 17 15 28 8 35 -9 9z"/>
<path d="M10200 9466 c0 -12 53 -117 62 -122 6 -4 9 -3 7 2 -37 84 -69 140
-69 120z"/>
<path d="M2375 9439 c-4 -6 -5 -12 -2 -15 2 -3 7 2 10 11 7 17 1 20 -8 4z"/>
<path d="M1757 9413 c-4 -3 -7 -11 -7 -17 0 -6 5 -5 12 2 6 6 9 14 7 17 -3 3
-9 2 -12 -2z"/>
<path d="M2357 9403 c-4 -3 -7 -11 -7 -17 0 -6 5 -5 12 2 6 6 9 14 7 17 -3 3
-9 2 -12 -2z"/>
<path d="M9640 9375 c0 -8 4 -15 10 -15 5 0 7 7 4 15 -4 8 -8 15 -10 15 -2 0
-4 -7 -4 -15z"/>
<path d="M1655 9210 c-3 -5 -1 -10 4 -10 6 0 11 5 11 10 0 6 -2 10 -4 10 -3 0
-8 -4 -11 -10z"/>
<path d="M1637 9173 c-4 -3 -7 -11 -7 -17 0 -6 5 -5 12 2 6 6 9 14 7 17 -3 3
-9 2 -12 -2z"/>
<path d="M10372 9060 c0 -8 8 -37 19 -65 15 -41 18 -44 13 -15 -7 40 -32 103
-32 80z"/>
<path d="M10105 8953 c-154 -60 -165 -66 -165 -82 0 -33 35 -151 45 -151 19 0
270 93 283 104 10 10 8 27 -13 87 -14 41 -25 75 -25 77 0 9 -48 -4 -125 -35z"/>
<path d="M1701 8923 c-12 -30 -41 -124 -41 -134 0 -7 78 -35 203 -73 48 -15
93 -29 101 -32 16 -6 64 152 50 166 -11 10 -267 100 -287 100 -8 0 -20 -12
-26 -27z"/>
<path d="M11017 8763 c-3 -5 -2 -15 2 -22 5 -7 11 -9 14 -4 3 5 2 15 -2 22 -5
7 -11 9 -14 4z"/>
<path d="M10430 8671 c0 -6 5 -13 10 -16 6 -3 10 1 10 9 0 9 -4 16 -10 16 -5
0 -10 -4 -10 -9z"/>
<path d="M1620 8628 c0 -9 5 -20 10 -23 18 -11 11 -28 -9 -22 -13 3 -21 -1
-24 -13 -6 -24 8 -44 23 -35 8 5 11 3 8 -6 -3 -9 -18 -13 -44 -12 l-39 2 35
-11 c139 -43 266 -74 274 -67 5 5 4 15 -4 24 -12 15 -10 15 16 9 27 -7 28 -6
15 10 -8 9 -19 15 -25 13 -6 -3 -17 2 -24 9 -7 8 -10 15 -7 15 3 1 10 3 15 4
6 1 12 3 15 4 3 0 0 7 -7 15 -9 10 -17 11 -25 4 -12 -10 -17 -4 -14 15 2 11
-47 9 -51 -3 -2 -6 -8 -6 -18 0 -13 8 -12 10 3 10 9 0 17 5 17 11 0 6 9 9 20
6 11 -3 20 -2 20 2 0 8 -81 31 -109 31 -11 0 -22 6 -24 13 -4 9 -8 8 -16 -3
-10 -13 -12 -13 -21 0 -8 13 -10 13 -10 -2z m139 -32 c-12 -10 -79 -16 -79 -6
0 5 19 10 42 10 23 0 39 -2 37 -4z m-79 -86 c0 -5 -9 -10 -20 -10 -11 0 -20 5
-20 10 0 6 9 10 20 10 11 0 20 -4 20 -10z m113 -30 c10 0 26 -8 35 -17 16 -16
16 -16 -3 -9 -11 5 -38 13 -60 19 -48 12 -49 13 -40 26 4 8 13 6 28 -4 12 -8
30 -15 40 -15z"/>
<path d="M5270 8506 c0 -51 26 -125 57 -163 18 -23 39 -56 44 -73 11 -30 34
-40 41 -18 3 9 27 5 88 -16 66 -22 94 -27 132 -22 82 11 55 -11 -54 -44 -264
-80 -408 -154 -408 -208 0 -24 28 -62 46 -62 32 0 104 45 111 70 7 29 30 49
56 50 14 0 18 -6 15 -29 -2 -24 5 -35 47 -70 27 -23 52 -36 54 -30 2 6 -2 16
-8 22 -17 17 -13 47 6 47 14 0 15 2 1 18 -48 55 -30 73 123 123 l132 43 46
-26 c48 -28 66 -63 37 -74 -9 -3 -16 -12 -16 -20 0 -7 -10 -20 -22 -28 -22
-16 -22 -16 12 -18 19 0 45 0 57 1 13 1 30 -9 42 -26 38 -48 57 -56 88 -39 40
21 176 164 168 176 -4 6 -1 18 6 26 24 29 198 -2 221 -39 11 -18 10 -49 -2
-42 -5 3 -10 1 -10 -4 0 -6 9 -11 19 -11 11 0 27 -7 35 -16 9 -8 20 -13 25
-10 5 4 11 0 14 -6 7 -20 20 -1 26 39 5 30 11 39 30 41 38 6 111 -26 111 -49
0 -10 12 -26 28 -36 15 -10 32 -25 39 -33 9 -11 12 -12 13 -2 0 7 4 11 10 7
12 -7 40 47 40 78 0 45 -91 95 -215 116 -33 6 -98 19 -145 28 -47 9 -105 19
-130 22 l-45 6 2 55 c2 49 6 58 34 80 46 36 127 113 109 104 -8 -4 -29 -18
-47 -30 -34 -25 -53 -30 -53 -14 0 6 7 10 15 10 8 0 15 5 15 10 0 13 -30 -2
-54 -26 -15 -14 -17 -14 -22 3 -18 57 -57 85 -126 91 -62 5 -118 -8 -170 -41
l-38 -22 73 -2 c93 -2 171 -22 175 -45 5 -24 -20 -32 -174 -58 -170 -29 -265
-29 -389 -1 -165 37 -277 100 -290 162 -7 31 -25 49 -25 25z m901 -87 c24 -17
29 -27 29 -62 l0 -42 -21 40 c-12 22 -30 50 -42 63 -26 28 -5 29 34 1z m0
-183 c-25 -46 -137 -80 -203 -61 -50 13 -30 31 37 34 36 1 123 29 149 47 26
18 32 10 17 -20z"/>
<path d="M1426 8405 c-9 -26 -7 -32 5 -12 6 10 9 21 6 23 -2 3 -7 -2 -11 -11z"/>
<path d="M7260 8401 c0 -17 14 -18 40 -5 l25 14 -32 0 c-18 0 -33 -4 -33 -9z"/>
<path d="M7310 8380 c0 -5 5 -10 10 -10 6 0 10 5 10 10 0 6 -4 10 -10 10 -5 0
-10 -4 -10 -10z"/>
<path d="M4333 8363 c-7 -3 -12 -14 -12 -26 1 -17 2 -18 6 -4 3 11 14 17 34
17 21 0 29 -5 30 -17 0 -11 3 -13 6 -5 2 7 22 12 44 12 28 0 39 4 39 15 0 12
-14 14 -67 13 -38 -1 -74 -3 -80 -5z"/>
<path d="M3280 8330 c0 -6 7 -10 15 -10 8 0 15 2 15 4 0 2 -7 6 -15 10 -8 3
-15 1 -15 -4z"/>
<path d="M4193 8313 c15 -2 37 -2 50 0 12 2 0 4 -28 4 -27 0 -38 -2 -22 -4z"/>
<path d="M9858 8073 c12 -2 32 -2 45 0 12 2 2 4 -23 4 -25 0 -35 -2 -22 -4z"/>
<path d="M9845 8005 c23 -8 83 -10 79 -3 -3 4 -24 8 -47 7 -23 0 -37 -2 -32
-4z"/>
<path d="M2063 7960 c0 -25 2 -35 4 -22 2 12 2 32 0 45 -2 12 -4 2 -4 -23z"/>
<path d="M3002 7775 c-1 -40 2 -53 7 -40 5 11 5 38 1 60 -7 38 -8 36 -8 -20z"/>
<path d="M2477 7740 c-7 -28 3 -60 19 -60 10 0 14 13 14 40 0 43 -23 57 -33
20z"/>
<path d="M6627 7370 c-136 -26 -170 -286 -57 -442 60 -83 116 -101 195 -63 33
17 47 33 78 95 35 70 38 80 34 145 -2 43 -12 89 -26 120 -25 56 -96 135 -122
135 -10 0 -21 5 -24 10 -7 11 -22 11 -78 0z"/>
<path d="M5235 7341 c-45 -28 -81 -71 -107 -126 -19 -41 -23 -67 -23 -145 0
-85 3 -101 28 -148 49 -93 121 -116 194 -63 53 38 67 60 103 153 51 132 39
238 -36 308 -36 34 -49 40 -86 40 -25 0 -56 -8 -73 -19z"/>
<path d="M4495 5810 c-3 -5 -2 -10 4 -10 5 0 13 5 16 10 3 6 2 10 -4 10 -5 0
-13 -4 -16 -10z"/>
<path d="M5798 5763 c6 -2 18 -2 25 0 6 3 1 5 -13 5 -14 0 -19 -2 -12 -5z"/>
<path d="M8750 5571 c0 -17 101 -80 321 -200 119 -65 369 -215 507 -303 75
-49 141 -88 147 -88 5 0 22 -11 36 -24 36 -33 126 -79 139 -71 6 4 9 3 8 -2
-3 -9 5 -13 29 -13 14 0 12 4 -7 17 -14 9 -30 22 -37 28 -6 7 -35 27 -65 45
-54 34 -149 95 -248 160 -30 20 -68 42 -85 50 -16 8 -32 18 -35 21 -3 3 -54
34 -115 69 -60 35 -135 79 -165 98 -174 111 -430 238 -430 213z"/>
<path d="M9985 4830 c-3 -5 -1 -10 4 -10 6 0 11 5 11 10 0 6 -2 10 -4 10 -3 0
-8 -4 -11 -10z"/>
<path d="M10070 4766 c0 -9 5 -16 10 -16 6 0 10 4 10 9 0 6 -4 13 -10 16 -5 3
-10 -1 -10 -9z"/>
<path d="M10100 4731 c0 -12 39 -25 47 -17 4 3 -1 6 -10 6 -9 0 -17 5 -17 10
0 6 -4 10 -10 10 -5 0 -10 -4 -10 -9z"/>
<path d="M10495 4445 c39 -32 58 -32 23 0 -15 14 -33 25 -40 25 -7 0 1 -11 17
-25z"/>
<path d="M10590 4395 c5 -6 8 -14 5 -16 -2 -3 12 -5 33 -6 20 0 31 2 25 4 -7
3 -13 11 -13 18 0 9 -11 13 -30 13 -22 -1 -27 -4 -20 -13z"/>
<path d="M10610 4362 c0 -5 7 -13 16 -16 10 -4 14 -1 12 6 -5 15 -28 23 -28
10z"/>
<path d="M10675 4320 c-3 -5 -1 -10 4 -10 6 0 11 5 11 10 0 6 -2 10 -4 10 -3
0 -8 -4 -11 -10z"/>
<path d="M10700 4292 c0 -4 18 -20 40 -35 25 -16 40 -21 40 -13 0 7 -18 22
-40 35 -22 12 -40 18 -40 13z"/>
<path d="M3270 5570 c-9 -6 -10 -10 -3 -10 6 0 15 5 18 10 8 12 4 12 -15 0z"/>
<path d="M3170 5471 c-58 -32 -119 -67 -137 -77 -17 -11 -103 -60 -190 -110
-200 -115 -270 -159 -295 -181 -11 -10 -21 -16 -22 -13 -2 7 -86 -43 -86 -52
0 -4 -4 -8 -9 -8 -20 0 -152 -89 -183 -123 -30 -33 -141 -97 -167 -97 -6 0
-11 -7 -11 -15 0 -8 -4 -15 -10 -15 -5 0 -25 -13 -43 -30 -19 -16 -42 -30 -51
-30 -9 0 -16 -4 -16 -10 0 -5 -7 -10 -15 -10 -8 0 -15 -4 -15 -10 0 -5 -11
-12 -25 -16 -14 -3 -25 -13 -25 -21 0 -8 -4 -11 -10 -8 -5 3 -20 1 -32 -6 -35
-19 -112 -79 -101 -79 15 0 103 48 140 76 17 13 36 24 41 24 5 0 34 18 66 40
31 22 59 40 61 40 2 0 95 58 207 128 168 107 291 182 420 257 10 5 73 43 142
83 68 39 127 72 130 72 3 0 36 19 73 43 38 24 82 50 98 59 17 9 66 35 110 58
93 49 105 58 105 76 0 27 -45 13 -150 -45z"/>
<path d="M7522 5000 c0 -14 2 -19 5 -12 2 6 2 18 0 25 -3 6 -5 1 -5 -13z"/>
<path d="M7536 4971 c-7 -10 23 -20 42 -14 6 3 10 9 6 14 -7 12 -41 12 -48 0z"/>
<path d="M7592 4920 c0 -14 2 -19 5 -12 2 6 2 18 0 25 -3 6 -5 1 -5 -13z"/>
<path d="M5004 4759 c3 -59 10 -117 15 -130 7 -16 8 14 4 91 -3 63 -10 122
-15 130 -6 10 -7 -24 -4 -91z"/>
<path d="M6894 4725 c-10 -140 -9 -169 6 -160 4 3 8 46 9 96 1 51 3 101 6 113
3 12 1 37 -3 56 -6 27 -10 3 -18 -105z"/>
<path d="M7650 4796 c0 -2 7 -9 15 -16 12 -10 15 -10 15 4 0 9 -7 16 -15 16
-8 0 -15 -2 -15 -4z"/>
<path d="M5031 4539 c0 -24 4 -62 9 -84 6 -29 7 -19 3 40 -6 88 -13 114 -12
44z"/>
<path d="M7728 4403 c6 -2 18 -2 25 0 6 3 1 5 -13 5 -14 0 -19 -2 -12 -5z"/>
<path d="M4338 4373 c12 -2 32 -2 45 0 12 2 2 4 -23 4 -25 0 -35 -2 -22 -4z"/>
<path d="M4520 4341 c0 -12 5 -21 10 -21 6 0 10 6 10 14 0 8 -4 18 -10 21 -5
3 -10 -3 -10 -14z"/>
<path d="M7367 4348 c-7 -4 9 -8 35 -8 26 0 49 3 52 8 6 10 -71 10 -87 0z"/>
<path d="M4481 4334 c-1 -20 -5 -21 -35 -14 -18 4 -51 4 -72 0 l-39 -8 40 -2
c36 -2 38 -3 15 -11 -17 -5 -7 -6 30 -3 69 8 80 14 69 39 -7 19 -8 19 -8 -1z"/>
<path d="M5220 4340 c0 -5 5 -10 10 -10 6 0 10 5 10 10 0 6 -4 10 -10 10 -5 0
-10 -4 -10 -10z"/>
<path d="M7305 4340 c-30 -8 -30 -8 8 -9 23 -1 36 3 32 9 -3 6 -7 9 -8 9 -1
-1 -15 -5 -32 -9z"/>
<path d="M4560 4330 c0 -5 5 -10 11 -10 5 0 7 5 4 10 -3 6 -8 10 -11 10 -2 0
-4 -4 -4 -10z"/>
<path d="M4626 4331 c-3 -5 1 -11 9 -14 9 -4 12 -1 8 9 -6 16 -10 17 -17 5z"/>
<path d="M4538 4303 c7 -3 16 -2 19 1 4 3 -2 6 -13 5 -11 0 -14 -3 -6 -6z"/>
<path d="M8195 4290 c3 -5 8 -10 11 -10 2 0 4 5 4 10 0 6 -5 10 -11 10 -5 0
-7 -4 -4 -10z"/>
<path d="M8433 4205 c0 -22 2 -53 6 -70 7 -30 7 -30 14 -5 3 13 2 27 -3 30 -5
3 -10 23 -13 45 l-4 40 0 -40z"/>
<path d="M3837 4196 c-4 -10 -1 -13 9 -9 15 6 19 23 5 23 -5 0 -11 -7 -14 -14z"/>
<path d="M8491 4174 c0 -11 3 -14 6 -6 3 7 2 16 -1 19 -3 4 -6 -2 -5 -13z"/>
<path d="M8470 4125 c0 -8 5 -15 10 -15 6 0 10 7 10 15 0 8 -4 15 -10 15 -5 0
-10 -7 -10 -15z"/>
<path d="M3673 4071 c-12 -20 -8 -31 13 -31 6 0 11 11 10 25 -1 30 -7 31 -23
6z"/>
<path d="M3640 3991 c0 -5 5 -13 10 -16 6 -3 10 -2 10 4 0 5 -4 13 -10 16 -5
3 -10 2 -10 -4z"/>
<path d="M3020 3359 c0 -5 5 -7 10 -4 6 3 10 8 10 11 0 2 -4 4 -10 4 -5 0 -10
-5 -10 -11z"/>
<path d="M9160 3291 c0 -10 19 -25 25 -20 1 2 -3 10 -11 17 -8 7 -14 8 -14 3z"/>
<path d="M9166 3231 c-4 -5 -2 -12 3 -15 5 -4 12 -2 15 3 4 5 2 12 -3 15 -5 4
-12 2 -15 -3z"/>
<path d="M9033 3215 c-3 -9 -3 -19 1 -22 3 -4 6 1 6 10 0 8 6 18 13 20 9 4 9
6 -1 6 -7 1 -15 -6 -19 -14z"/>
<path d="M2910 3210 c0 -5 5 -10 10 -10 6 0 10 5 10 10 0 6 -4 10 -10 10 -5 0
-10 -4 -10 -10z"/>
<path d="M9095 3200 c-3 -6 1 -7 9 -4 18 7 21 14 7 14 -6 0 -13 -4 -16 -10z"/>
<path d="M2930 3185 c-11 -13 -9 -15 14 -13 14 1 25 7 23 12 -6 17 -23 17 -37
1z"/>
<path d="M9070 3160 c0 -5 5 -10 10 -10 6 0 10 5 10 10 0 6 -4 10 -10 10 -5 0
-10 -4 -10 -10z"/>
<path d="M9225 3160 c3 -5 13 -10 21 -10 8 0 12 5 9 10 -3 6 -13 10 -21 10 -8
0 -12 -4 -9 -10z"/>
<path d="M2873 3137 c4 -11 1 -17 -8 -17 -8 0 -15 5 -15 12 0 9 -3 9 -11 1
-25 -25 14 -43 43 -20 16 11 16 13 0 27 -14 13 -15 12 -9 -3z"/>
<path d="M9190 3112 c0 -12 19 -26 26 -19 2 2 -2 10 -11 17 -9 8 -15 8 -15 2z"/>
<path d="M2836 3083 c-12 -12 -6 -33 9 -33 8 0 15 6 15 14 0 17 -14 28 -24 19z"/>
<path d="M9157 3054 c-11 -11 3 -24 24 -24 12 0 19 5 17 13 -5 14 -31 21 -41
11z"/>
<path d="M9218 3015 c5 -28 22 -24 22 6 0 10 -6 19 -14 19 -9 0 -12 -8 -8 -25z"/>
<path d="M9186 2984 c-4 -9 -4 -19 -1 -22 2 -3 7 3 11 12 4 9 4 19 1 22 -2 3
-7 -3 -11 -12z"/>
<path d="M7555 2900 c-3 -5 -1 -10 4 -10 6 0 11 5 11 10 0 6 -2 10 -4 10 -3 0
-8 -4 -11 -10z"/>
<path d="M2794 2879 c-3 -6 1 -18 10 -27 10 -11 16 -12 16 -4 0 7 -4 12 -10
12 -5 0 -10 5 -10 11 0 6 9 8 23 4 17 -5 19 -4 7 4 -19 14 -27 14 -36 0z"/>
<path d="M7356 2827 c-49 -56 -70 -68 -130 -76 l-50 -6 30 -34 c25 -27 39 -34
80 -38 40 -4 54 -1 74 16 l25 21 -31 -6 c-52 -10 -52 20 -1 85 53 68 61 81 49
81 -4 0 -25 -19 -46 -43z"/>
<path d="M4497 2808 c-8 -22 13 -48 38 -48 30 0 33 20 7 43 -22 20 -39 22 -45
5z"/>
<path d="M6900 2809 c0 -5 9 -9 20 -9 11 0 20 2 20 4 0 2 -9 6 -20 9 -11 3
-20 1 -20 -4z"/>
<path d="M7107 2768 c-2 -29 -3 -55 -1 -57 3 -3 15 6 29 20 22 22 23 26 10 57
-20 46 -32 40 -38 -20z"/>
<path d="M7470 2791 c-19 -16 -32 -32 -29 -35 8 -8 71 33 64 43 -3 5 1 12 7
14 7 3 9 6 3 6 -5 0 -26 -13 -45 -28z"/>
<path d="M4720 2762 c0 -4 22 -30 50 -57 28 -28 50 -59 50 -71 0 -51 -59 -54
-103 -6 -39 44 -72 69 -100 76 l-26 6 26 -45 c21 -39 29 -45 57 -45 21 0 44
-10 66 -30 28 -23 45 -29 81 -30 43 0 49 3 88 50 37 44 40 50 21 50 -33 0 -88
27 -142 70 -50 39 -68 48 -68 32z"/>
<path d="M5336 2651 c-3 -5 1 -11 9 -15 8 -3 15 -1 15 4 0 13 -18 22 -24 11z"/>
<path d="M5448 2553 c7 -3 16 -2 19 1 4 3 -2 6 -13 5 -11 0 -14 -3 -6 -6z"/>
<path d="M5401 2525 c0 -11 23 -45 32 -45 2 0 8 7 11 16 3 9 2 12 -5 9 -6 -4
-17 1 -24 11 -8 11 -14 15 -14 9z"/>
<path d="M5511 2518 c-1 -11 -9 -18 -20 -18 -11 0 -23 -4 -26 -10 -4 -6 6 -10
24 -10 35 0 41 8 30 35 -6 17 -8 17 -8 3z"/>
<path d="M5530 2479 c-11 -8 -12 -12 -2 -16 6 -2 12 -19 13 -36 0 -29 1 -30 9
-9 5 12 17 22 26 22 13 0 14 3 4 15 -7 8 -19 15 -27 15 -8 0 -11 5 -8 10 8 13
4 12 -15 -1z"/>
<path d="M6385 2463 c4 -10 10 -28 12 -40 6 -28 15 -29 36 -5 24 27 21 39 -14
51 -41 14 -42 14 -34 -6z"/>
<path d="M5440 2455 c0 -9 6 -12 15 -9 8 4 15 7 15 9 0 2 -7 5 -15 9 -9 3 -15
0 -15 -9z"/>
<path d="M5502 2431 c-11 -7 -11 -9 2 -14 10 -4 16 -1 16 8 0 17 -1 17 -18 6z"/>
<path d="M5602 2428 c5 -15 28 -23 28 -10 0 5 -7 13 -16 16 -10 4 -14 1 -12
-6z"/>
<path d="M6488 2423 c7 -3 16 -2 19 1 4 3 -2 6 -13 5 -11 0 -14 -3 -6 -6z"/>
<path d="M6525 2403 c11 -3 24 -10 28 -17 6 -7 7 -6 4 4 -2 8 -14 16 -28 17
-19 1 -20 1 -4 -4z"/>
<path d="M5500 2391 c0 -6 5 -13 10 -16 6 -3 10 1 10 9 0 9 -4 16 -10 16 -5 0
-10 -4 -10 -9z"/>
<path d="M6588 2393 c7 -3 16 -2 19 1 4 3 -2 6 -13 5 -11 0 -14 -3 -6 -6z"/>
<path d="M6428 2373 c18 -2 45 -2 60 0 15 2 0 4 -33 4 -33 0 -45 -2 -27 -4z"/>
<path d="M6961 2271 c-11 -7 -9 -11 9 -21 12 -6 24 -9 28 -6 3 3 0 6 -6 6 -6
0 -12 7 -14 15 -2 10 -8 12 -17 6z"/>
<path d="M6990 2220 c0 -5 7 -10 15 -10 8 0 15 5 15 10 0 6 -7 10 -15 10 -8 0
-15 -4 -15 -10z"/>
<path d="M7070 2155 c0 -5 5 -17 10 -25 5 -8 10 -10 10 -5 0 6 -5 17 -10 25
-5 8 -10 11 -10 5z"/>
<path d="M5060 2124 c0 -8 5 -12 10 -9 6 4 8 11 5 16 -9 14 -15 11 -15 -7z"/>
<path d="M5057 2054 c-4 -4 -7 -14 -7 -22 0 -11 3 -12 14 -3 11 9 15 9 20 -1
3 -7 5 -4 3 6 -2 21 -19 31 -30 20z"/>
<path d="M5107 1943 c-11 -10 -8 -43 3 -43 6 0 10 11 10 25 0 26 -2 29 -13 18z"/>
<path d="M6260 1501 c0 -6 5 -13 10 -16 6 -3 10 1 10 9 0 9 -4 16 -10 16 -5 0
-10 -4 -10 -9z"/>
<path d="M9625 1430 c3 -5 10 -10 16 -10 5 0 9 5 9 10 0 6 -7 10 -16 10 -8 0
-12 -4 -9 -10z"/>
<path d="M2475 1411 c-3 -5 -1 -12 5 -16 5 -3 10 1 10 9 0 18 -6 21 -15 7z"/>
<path d="M6024 1405 c-4 -8 -3 -22 0 -31 5 -13 2 -15 -14 -11 -18 4 -20 1 -19
-31 2 -31 3 -32 6 -9 2 15 9 25 14 22 5 -4 6 -18 3 -33 -5 -19 -3 -24 4 -17
12 11 28 125 18 125 -4 0 -9 -7 -12 -15z"/>
<path d="M6076 1403 c-4 -9 -2 -21 4 -27 8 -8 9 -6 4 8 -6 16 -4 18 9 13 11
-4 17 -1 17 8 0 20 -26 19 -34 -2z"/>
<path d="M6130 1375 c0 -8 5 -15 10 -15 6 0 10 7 10 15 0 8 -4 15 -10 15 -5 0
-10 -7 -10 -15z"/>
<path d="M6280 1374 c0 -8 5 -12 10 -9 6 3 10 10 10 16 0 5 -4 9 -10 9 -5 0
-10 -7 -10 -16z"/>
<path d="M6415 1344 c8 -13 15 -32 15 -43 0 -11 5 -23 10 -26 6 -4 10 6 9 22
-2 44 -12 68 -32 69 -17 2 -17 0 -2 -22z"/>
<path d="M6100 1315 c0 -8 5 -15 10 -15 6 0 10 7 10 15 0 8 -4 15 -10 15 -5 0
-10 -7 -10 -15z"/>
<path d="M6184 1282 c-1 -26 1 -38 3 -27 9 36 38 46 48 15 7 -22 25 -27 25 -7
0 12 -56 67 -69 67 -3 0 -7 -21 -7 -48z"/>
<path d="M6266 1322 c-8 -13 3 -42 15 -42 11 0 11 21 0 39 -5 8 -11 9 -15 3z"/>
<path d="M6311 1308 c1 -13 5 -36 9 -53 7 -29 8 -29 9 9 1 37 2 39 16 20 8
-10 15 -28 15 -38 0 -16 3 -17 12 -8 10 10 10 17 1 31 -7 10 -9 29 -6 42 5 19
3 22 -7 12 -9 -8 -19 -9 -32 -2 -15 8 -18 6 -17 -13z"/>
<path d="M6402 1285 c0 -16 2 -22 5 -12 2 9 2 23 0 30 -3 6 -5 -1 -5 -18z"/>
<path d="M5927 1294 c-10 -10 22 -64 38 -64 19 0 19 19 0 26 -8 4 -15 15 -15
25 0 19 -11 25 -23 13z"/>
<path d="M6051 1273 c-6 -16 -16 -37 -23 -48 -7 -11 -14 -22 -15 -24 -2 -2 -9
2 -18 9 -8 7 -15 8 -15 2 0 -24 35 -23 57 2 12 14 27 26 33 26 5 0 10 7 10 15
0 8 -4 15 -10 15 -5 0 -7 7 -4 15 4 8 4 15 1 15 -3 0 -10 -12 -16 -27z"/>
<path d="M6152 1278 c-14 -14 -16 -28 -3 -28 5 0 11 9 14 20 6 23 5 24 -11 8z"/>
<path d="M9410 1279 c0 -5 5 -7 10 -4 6 3 10 8 10 11 0 2 -4 4 -10 4 -5 0 -10
-5 -10 -11z"/>
<path d="M5677 1263 c-9 -9 -9 -43 1 -43 18 1 34 19 29 34 -7 17 -19 21 -30 9z"/>
<path d="M6089 1244 c-6 -8 -10 -16 -7 -19 6 -7 48 6 48 15 0 16 -29 18 -41 4z"/>
<path d="M5775 1220 c-12 -13 -14 -20 -6 -20 17 0 43 28 32 34 -4 3 -16 -3
-26 -14z"/>
<path d="M5900 1225 c0 -8 -7 -15 -17 -15 -29 0 -9 -9 30 -13 21 -2 40 0 43 4
3 5 -4 9 -15 9 -12 0 -21 7 -21 15 0 8 -4 15 -10 15 -5 0 -10 -7 -10 -15z"/>
<path d="M6211 1224 c0 -11 3 -14 6 -6 3 7 2 16 -1 19 -3 4 -6 -2 -5 -13z"/>
<path d="M2745 1220 c3 -5 8 -10 11 -10 2 0 4 5 4 10 0 6 -5 10 -11 10 -5 0
-7 -4 -4 -10z"/>
<path d="M5831 1214 c0 -11 3 -14 6 -6 3 7 2 16 -1 19 -3 4 -6 -2 -5 -13z"/>
<path d="M6245 1199 c-4 -6 -5 -12 -2 -15 2 -3 7 2 10 11 7 17 1 20 -8 4z"/>
<path d="M5607 1163 c-4 -3 -7 -11 -7 -17 0 -6 5 -5 12 2 6 6 9 14 7 17 -3 3
-9 2 -12 -2z"/>
<path d="M5810 1070 c0 -5 5 -10 11 -10 5 0 7 5 4 10 -3 6 -8 10 -11 10 -2 0
-4 -4 -4 -10z"/>
<path d="M6575 990 c-3 -5 -1 -10 4 -10 6 0 11 5 11 10 0 6 -2 10 -4 10 -3 0
-8 -4 -11 -10z"/>
<path d="M3040 980 c0 -5 5 -10 10 -10 6 0 10 5 10 10 0 6 -4 10 -10 10 -5 0
-10 -4 -10 -10z"/>
<path d="M3050 960 c-12 -8 -11 -10 8 -10 12 0 22 -6 22 -14 0 -25 14 -25 32
-1 16 21 16 22 -8 17 -14 -2 -24 0 -24 7 0 13 -10 14 -30 1z"/>
<path d="M6395 959 c-4 -6 -5 -12 -2 -15 2 -3 7 2 10 11 7 17 1 20 -8 4z"/>
<path d="M6020 940 c0 -21 16 -44 23 -33 4 6 0 19 -8 29 -11 15 -14 16 -15 4z"/>
<path d="M6445 910 c3 -5 8 -10 11 -10 2 0 4 5 4 10 0 6 -5 10 -11 10 -5 0 -7
-4 -4 -10z"/>
<path d="M6230 895 c0 -8 4 -15 10 -15 5 0 7 7 4 15 -4 8 -8 15 -10 15 -2 0
-4 -7 -4 -15z"/>
<path d="M3130 890 c0 -5 5 -10 10 -10 6 0 10 5 10 10 0 6 -4 10 -10 10 -5 0
-10 -4 -10 -10z"/>
<path d="M3245 889 c-10 -14 -1 -21 19 -13 9 3 13 10 10 15 -7 12 -21 11 -29
-2z"/>
<path d="M5532 891 c-10 -6 -10 -10 1 -20 12 -9 16 -8 20 3 7 19 -4 27 -21 17z"/>
<path d="M5305 880 c-3 -5 1 -10 9 -10 9 0 16 5 16 10 0 6 -4 10 -9 10 -6 0
-13 -4 -16 -10z"/>
<path d="M5745 860 c-3 -5 -1 -10 4 -10 6 0 11 5 11 10 0 6 -2 10 -4 10 -3 0
-8 -4 -11 -10z"/>
<path d="M5600 830 c0 -5 5 -10 10 -10 6 0 10 5 10 10 0 6 -4 10 -10 10 -5 0
-10 -4 -10 -10z"/>
<path d="M6026 813 c-6 -14 -5 -15 5 -6 7 7 10 15 7 18 -3 3 -9 -2 -12 -12z"/>
<path d="M5777 807 c-4 -10 -7 -28 -7 -40 1 -20 2 -20 11 -4 6 10 9 28 7 40
-3 20 -4 20 -11 4z"/>
<path d="M6481 788 c0 -9 -4 -25 -7 -35 -5 -14 -4 -15 5 -7 7 7 11 22 8 35 -2
13 -5 16 -6 7z"/>
<path d="M6685 790 c3 -5 8 -10 11 -10 2 0 4 5 4 10 0 6 -5 10 -11 10 -5 0 -7
-4 -4 -10z"/>
<path d="M5620 775 c0 -8 4 -15 10 -15 5 0 7 7 4 15 -4 8 -8 15 -10 15 -2 0
-4 -7 -4 -15z"/>
<path d="M6117 763 c-4 -3 -7 -11 -7 -17 0 -6 5 -5 12 2 6 6 9 14 7 17 -3 3
-9 2 -12 -2z"/>
<path d="M5946 724 c-7 -18 0 -34 15 -34 5 0 9 11 9 25 0 28 -15 34 -24 9z"/>
<path d="M3510 715 c0 -16 16 -20 24 -6 3 5 -1 11 -9 15 -9 3 -15 0 -15 -9z"/>
<path d="M6070 710 c0 -19 3 -21 12 -12 9 9 9 15 0 24 -9 9 -12 7 -12 -12z"/>
<path d="M8640 710 c0 -5 4 -10 9 -10 6 0 13 5 16 10 3 6 -1 10 -9 10 -9 0
-16 -4 -16 -10z"/>
<path d="M6020 691 c0 -5 7 -11 15 -15 9 -3 15 0 15 9 0 8 -7 15 -15 15 -8 0
-15 -4 -15 -9z"/>
<path d="M6111 684 c0 -11 3 -14 6 -6 3 7 2 16 -1 19 -3 4 -6 -2 -5 -13z"/>
<path d="M5760 670 c0 -21 16 -44 23 -33 4 6 0 19 -8 29 -11 15 -14 16 -15 4z"/>
<path d="M6491 664 c0 -11 3 -14 6 -6 3 7 2 16 -1 19 -3 4 -6 -2 -5 -13z"/>
<path d="M5867 647 c-3 -8 3 -14 14 -14 11 -1 19 5 19 13 0 18 -26 19 -33 1z"/>
<path d="M6090 644 c0 -8 5 -12 10 -9 6 3 10 10 10 16 0 5 -4 9 -10 9 -5 0
-10 -7 -10 -16z"/>
<path d="M6145 651 c-6 -11 9 -23 19 -14 9 9 7 23 -3 23 -6 0 -12 -4 -16 -9z"/>
<path d="M8425 650 c-3 -5 1 -10 10 -10 9 0 13 5 10 10 -3 6 -8 10 -10 10 -2
0 -7 -4 -10 -10z"/>
<path d="M5807 634 c3 -7 0 -14 -6 -14 -6 0 -11 -10 -11 -22 l0 -23 20 25 c24
30 24 36 6 43 -10 4 -13 1 -9 -9z"/>
<path d="M6002 610 c0 -14 2 -19 5 -12 2 6 2 18 0 25 -3 6 -5 1 -5 -13z"/>
<path d="M6200 609 c0 -5 5 -7 10 -4 6 3 10 8 10 11 0 2 -4 4 -10 4 -5 0 -10
-5 -10 -11z"/>
<path d="M6351 604 c0 -11 3 -14 6 -6 3 7 2 16 -1 19 -3 4 -6 -2 -5 -13z"/>
<path d="M5830 598 c0 -3 7 -21 15 -39 16 -34 16 -34 10 -4 -6 26 -25 60 -25
43z"/>
<path d="M6070 584 c0 -8 5 -12 10 -9 6 3 10 10 10 16 0 5 -4 9 -10 9 -5 0
-10 -7 -10 -16z"/>
<path d="M6190 575 c0 -8 4 -15 10 -15 5 0 7 7 4 15 -4 8 -8 15 -10 15 -2 0
-4 -7 -4 -15z"/>
<path d="M6400 578 c0 -9 7 -19 16 -22 15 -6 15 -4 3 11 -7 10 -15 20 -16 22
-2 2 -3 -3 -3 -11z"/>
<path d="M6455 574 c9 -9 19 -13 23 -10 3 4 0 11 -8 16 -24 15 -33 11 -15 -6z"/>
<path d="M4085 569 c-9 -14 -2 -20 14 -10 8 6 9 11 3 15 -6 3 -14 1 -17 -5z"/>
<path d="M5956 562 c-4 -12 -1 -31 6 -44 l13 -23 3 27 c2 15 -1 35 -6 44 -9
16 -10 15 -16 -4z"/>
<path d="M6323 563 c-15 -5 -17 -23 -4 -23 5 0 11 7 15 15 3 8 4 15 3 14 -1 0
-8 -3 -14 -6z"/>
<path d="M6360 539 c0 -11 5 -17 10 -14 6 3 10 13 10 21 0 8 -4 14 -10 14 -5
0 -10 -9 -10 -21z"/>
<path d="M5580 540 c-8 -5 -11 -12 -7 -16 4 -4 13 -2 19 4 15 15 7 24 -12 12z"/>
<path d="M5920 530 c0 -19 3 -21 12 -12 9 9 9 15 0 24 -9 9 -12 7 -12 -12z"/>
<path d="M6088 509 c-24 -14 -23 -28 2 -22 11 3 20 12 20 19 0 16 0 16 -22 3z"/>
<path d="M7997 503 c-4 -3 -7 -11 -7 -17 0 -6 5 -5 12 2 6 6 9 14 7 17 -3 3
-9 2 -12 -2z"/>
<path d="M4501 474 c0 -11 3 -14 6 -6 3 7 2 16 -1 19 -3 4 -6 -2 -5 -13z"/>
<path d="M6020 480 c0 -5 5 -10 11 -10 5 0 7 5 4 10 -3 6 -8 10 -11 10 -2 0
-4 -4 -4 -10z"/>
<path d="M6202 460 c0 -14 2 -19 5 -12 2 6 2 18 0 25 -3 6 -5 1 -5 -13z"/>
<path d="M6526 461 c-4 -7 -5 -15 -2 -18 9 -9 19 4 14 18 -4 11 -6 11 -12 0z"/>
<path d="M4097 453 c-4 -3 -7 -15 -7 -25 0 -26 24 -17 28 10 3 21 -8 29 -21
15z"/>
<path d="M4175 450 c-7 -12 2 -30 16 -30 5 0 9 9 9 20 0 21 -15 27 -25 10z"/>
<path d="M5711 444 c0 -11 3 -14 6 -6 3 7 2 16 -1 19 -3 4 -6 -2 -5 -13z"/>
<path d="M6156 414 c-8 -21 -4 -25 14 -14 11 7 12 12 4 20 -8 8 -13 7 -18 -6z"/>
<path d="M6391 414 c0 -11 3 -14 6 -6 3 7 2 16 -1 19 -3 4 -6 -2 -5 -13z"/>
<path d="M6711 414 c0 -11 3 -14 6 -6 3 7 2 16 -1 19 -3 4 -6 -2 -5 -13z"/>
<path d="M7101 421 c-7 -5 -11 -15 -9 -22 3 -10 8 -7 17 9 13 24 12 26 -8 13z"/>
<path d="M5930 410 c0 -5 5 -10 10 -10 6 0 10 5 10 10 0 6 -4 10 -10 10 -5 0
-10 -4 -10 -10z"/>
<path d="M6000 407 c0 -10 8 -17 18 -17 9 0 13 4 7 8 -5 4 -13 11 -17 16 -5 5
-8 2 -8 -7z"/>
<path d="M6091 404 c0 -11 3 -14 6 -6 3 7 2 16 -1 19 -3 4 -6 -2 -5 -13z"/>
<path d="M6195 399 c-4 -11 -4 -23 -1 -26 3 -4 6 1 6 10 0 8 5 17 12 19 9 3 9
6 1 11 -7 4 -14 -1 -18 -14z"/>
<path d="M6260 389 c0 -17 4 -28 10 -24 6 3 10 17 10 31 0 13 -4 24 -10 24 -5
0 -10 -14 -10 -31z"/>
<path d="M4445 390 c-3 -5 -1 -10 4 -10 6 0 11 5 11 10 0 6 -2 10 -4 10 -3 0
-8 -4 -11 -10z"/>
<path d="M7547 380 c3 -11 12 -20 19 -20 12 0 12 4 2 20 -7 11 -16 20 -19 20
-4 0 -5 -9 -2 -20z"/>
<path d="M7758 393 c7 -3 16 -2 19 1 4 3 -2 6 -13 5 -11 0 -14 -3 -6 -6z"/>
<path d="M7880 385 c0 -8 5 -15 10 -15 6 0 10 7 10 15 0 8 -4 15 -10 15 -5 0
-10 -7 -10 -15z"/>
<path d="M4297 384 c-8 -8 1 -24 14 -24 5 0 9 7 9 15 0 15 -12 20 -23 9z"/>
<path d="M5860 374 c0 -8 5 -12 10 -9 6 3 10 10 10 16 0 5 -4 9 -10 9 -5 0
-10 -7 -10 -16z"/>
<path d="M4610 366 c0 -8 5 -18 10 -21 6 -3 10 1 10 9 0 8 -4 18 -10 21 -5 3
-10 -1 -10 -9z"/>
<path d="M5931 364 c0 -11 3 -14 6 -6 3 7 2 16 -1 19 -3 4 -6 -2 -5 -13z"/>
<path d="M5410 355 c0 -8 5 -15 10 -15 6 0 10 7 10 15 0 8 -4 15 -10 15 -5 0
-10 -7 -10 -15z"/>
<path d="M5971 354 c0 -11 3 -14 6 -6 3 7 2 16 -1 19 -3 4 -6 -2 -5 -13z"/>
<path d="M6005 360 c3 -5 8 -10 11 -10 2 0 4 5 4 10 0 6 -5 10 -11 10 -5 0 -7
-4 -4 -10z"/>
<path d="M4520 349 c0 -5 5 -7 10 -4 6 3 10 8 10 11 0 2 -4 4 -10 4 -5 0 -10
-5 -10 -11z"/>
<path d="M5660 332 c0 -5 7 -15 15 -22 8 -7 15 -9 15 -6 0 4 -7 14 -15 22 -8
9 -15 11 -15 6z"/>
<path d="M4907 323 c-10 -10 -8 -53 2 -53 5 0 11 14 13 30 4 29 -1 37 -15 23z"/>
<path d="M5005 320 c3 -5 8 -10 11 -10 2 0 4 5 4 10 0 6 -5 10 -11 10 -5 0 -7
-4 -4 -10z"/>
<path d="M5165 319 c-4 -6 -5 -12 -2 -15 2 -3 7 2 10 11 7 17 1 20 -8 4z"/>
<path d="M5460 321 c0 -6 5 -13 10 -16 6 -3 10 1 10 9 0 9 -4 16 -10 16 -5 0
-10 -4 -10 -9z"/>
<path d="M7698 313 c7 -3 16 -2 19 1 4 3 -2 6 -13 5 -11 0 -14 -3 -6 -6z"/>
<path d="M4832 280 c0 -19 2 -27 5 -17 2 9 2 25 0 35 -3 9 -5 1 -5 -18z"/>
<path d="M5730 300 c0 -5 7 -10 16 -10 8 0 12 5 9 10 -3 6 -10 10 -16 10 -5 0
-9 -4 -9 -10z"/>
<path d="M5540 281 c0 -12 5 -21 10 -21 6 0 10 6 10 14 0 8 -4 18 -10 21 -5 3
-10 -3 -10 -14z"/>
<path d="M5815 280 c-4 -6 -3 -16 3 -22 6 -6 12 -6 17 2 4 6 3 16 -3 22 -6 6
-12 6 -17 -2z"/>
<path d="M6200 275 c0 -8 5 -15 10 -15 6 0 10 7 10 15 0 8 -4 15 -10 15 -5 0
-10 -7 -10 -15z"/>
<path d="M4780 270 c0 -5 5 -10 10 -10 6 0 10 5 10 10 0 6 -4 10 -10 10 -5 0
-10 -4 -10 -10z"/>
<path d="M5050 270 c0 -5 4 -10 9 -10 6 0 13 5 16 10 3 6 -1 10 -9 10 -9 0
-16 -4 -16 -10z"/>
<path d="M6380 260 c0 -17 2 -19 14 -8 14 13 12 28 -5 28 -5 0 -9 -9 -9 -20z"/>
<path d="M7325 267 c-4 -10 -5 -21 -1 -24 10 -10 18 4 13 24 -4 17 -4 17 -12
0z"/>
<path d="M4867 264 c-4 -4 -7 -14 -7 -23 0 -14 2 -14 10 -1 8 12 10 12 10 1 0
-8 3 -12 6 -8 3 3 2 13 -3 22 -5 8 -12 12 -16 9z"/>
<path d="M6501 254 c0 -11 3 -14 6 -6 3 7 2 16 -1 19 -3 4 -6 -2 -5 -13z"/>
<path d="M4740 250 c0 -5 5 -10 10 -10 6 0 10 5 10 10 0 6 -4 10 -10 10 -5 0
-10 -4 -10 -10z"/>
<path d="M5977 245 c-4 -8 -2 -17 3 -20 6 -4 10 3 10 14 0 25 -6 27 -13 6z"/>
<path d="M7191 246 c-9 -11 -8 -15 5 -20 22 -8 24 -8 24 8 0 21 -16 28 -29 12z"/>
<path d="M6250 240 c0 -5 5 -10 11 -10 5 0 7 5 4 10 -3 6 -8 10 -11 10 -2 0
-4 -4 -4 -10z"/>
<path d="M6435 240 c3 -5 8 -10 11 -10 2 0 4 5 4 10 0 6 -5 10 -11 10 -5 0 -7
-4 -4 -10z"/>
<path d="M5226 221 c-19 -21 -12 -28 13 -12 7 5 12 14 9 21 -2 7 -10 4 -22 -9z"/>
<path d="M5336 219 c-19 -19 -17 -37 3 -24 14 8 34 45 24 44 -4 0 -17 -9 -27
-20z"/>
<path d="M5921 222 c-1 -13 -6 -33 -12 -44 -14 -27 3 -47 25 -28 9 7 13 17 9
23 -3 6 -10 24 -14 41 -5 25 -7 26 -8 8z"/>
<path d="M6855 230 c3 -5 10 -10 16 -10 5 0 9 5 9 10 0 6 -7 10 -16 10 -8 0
-12 -4 -9 -10z"/>
<path d="M5642 213 c-15 -27 -15 -36 -2 -28 6 4 17 1 25 -5 11 -9 15 -9 15 -1
0 6 -4 11 -9 11 -5 0 -11 10 -13 23 l-3 22 -13 -22z"/>
<path d="M5790 220 c0 -5 5 -10 10 -10 6 0 10 5 10 10 0 6 -4 10 -10 10 -5 0
-10 -4 -10 -10z"/>
<path d="M7130 215 c0 -8 0 -18 -1 -22 0 -4 4 -9 10 -11 6 -2 11 8 11 22 0 14
-4 26 -10 26 -5 0 -10 -7 -10 -15z"/>
<path d="M4900 209 c0 -5 5 -7 10 -4 6 3 10 8 10 11 0 2 -4 4 -10 4 -5 0 -10
-5 -10 -11z"/>
<path d="M6090 204 c0 -8 5 -12 10 -9 6 4 8 11 5 16 -9 14 -15 11 -15 -7z"/>
<path d="M5268 185 c-3 -14 -1 -25 3 -25 5 0 9 11 9 25 0 14 -2 25 -4 25 -2 0
-6 -11 -8 -25z"/>
<path d="M6043 170 c0 -25 2 -35 4 -22 2 12 2 32 0 45 -2 12 -4 2 -4 -23z"/>
<path d="M6156 195 c-3 -10 -2 -23 4 -29 15 -15 24 1 13 26 -9 20 -10 20 -17
3z"/>
<path d="M5060 174 c0 -8 5 -12 10 -9 6 3 10 10 10 16 0 5 -4 9 -10 9 -5 0
-10 -7 -10 -16z"/>
<path d="M5201 174 c0 -11 3 -14 6 -6 3 7 2 16 -1 19 -3 4 -6 -2 -5 -13z"/>
<path d="M6291 174 c0 -11 3 -14 6 -6 3 7 2 16 -1 19 -3 4 -6 -2 -5 -13z"/>
<path d="M5727 174 c-14 -14 -6 -42 13 -47 23 -6 24 -1 7 31 -7 12 -16 19 -20
16z"/>
<path d="M6002 160 c0 -14 2 -19 5 -12 2 6 2 18 0 25 -3 6 -5 1 -5 -13z"/>
<path d="M6130 156 c0 -22 3 -27 11 -19 8 8 8 16 0 30 -9 16 -10 14 -11 -11z"/>
<path d="M5532 158 c-7 -7 -12 -8 -12 -2 0 5 -7 -4 -15 -20 -20 -37 -19 -46 3
-46 13 0 24 13 35 40 15 40 11 50 -11 28z"/>
<path d="M5170 141 c0 -12 6 -21 16 -21 9 0 14 7 12 17 -5 25 -28 28 -28 4z"/>
<path d="M5380 150 c0 -5 5 -10 10 -10 6 0 10 5 10 10 0 6 -4 10 -10 10 -5 0
-10 -4 -10 -10z"/>
<path d="M6330 153 c0 -5 4 -15 10 -23 11 -18 25 -7 17 15 -6 15 -27 21 -27 8z"/>
<path d="M6840 150 c0 -5 7 -7 15 -4 8 4 15 8 15 10 0 2 -7 4 -15 4 -8 0 -15
-4 -15 -10z"/>
<path d="M5905 120 c3 -5 8 -10 11 -10 2 0 4 5 4 10 0 6 -5 10 -11 10 -5 0 -7
-4 -4 -10z"/>
</g>
</svg>
